<svg xmlns="http://www.w3.org/2000/svg" xmlns:xlink="http://www.w3.org/1999/xlink" width="500" zoomAndPan="magnify" viewBox="0 0 375 374.999991" height="500" preserveAspectRatio="xMidYMid meet" version="1.0"><defs><clipPath id="f2da650c5e"><path d="M 52 7.945312 L 337 7.945312 L 337 347 L 52 347 Z M 52 7.945312 " clip-rule="nonzero"/></clipPath><clipPath id="1b662a1164"><path d="M 190 302 L 235 302 L 235 367.191406 L 190 367.191406 Z M 190 302 " clip-rule="nonzero"/></clipPath></defs><g clip-path="url(#f2da650c5e)"><path fill="#007aff" d="M 180.601562 7.945312 C 180.503906 7.945312 180.410156 7.945312 180.3125 7.945312 C 179.730469 8.039062 179.152344 8.136719 178.667969 8.621094 C 178.378906 8.8125 178.183594 9.105469 177.894531 9.492188 L 177.699219 9.683594 C 177.410156 10.070312 177.121094 10.457031 176.832031 10.84375 L 175.960938 12.003906 L 175.089844 13.261719 C 173.929688 14.808594 172.863281 16.359375 171.800781 17.90625 L 171.703125 18.097656 C 171.125 18.871094 170.640625 19.550781 170.058594 20.324219 L 169.964844 20.515625 L 169.671875 20.902344 L 169.480469 21.195312 L 169.191406 21.484375 L 168.320312 22.644531 C 166.773438 24.675781 165.128906 26.609375 163.582031 28.351562 C 161.9375 30.1875 160.097656 32.027344 157.777344 34.347656 L 155.261719 36.667969 L 152.84375 38.894531 C 149.75 41.699219 146.558594 44.308594 143.367188 46.726562 C 140.660156 48.660156 137.5625 50.691406 133.695312 53.109375 L 131.761719 54.269531 C 130.40625 55.042969 129.050781 55.914062 127.699219 56.6875 C 125.570312 57.945312 123.539062 59.105469 121.410156 60.363281 L 120.347656 60.945312 L 119.285156 61.523438 C 118.800781 61.816406 118.316406 62.105469 117.929688 62.394531 L 117.832031 62.492188 L 117.347656 62.878906 L 117.15625 62.976562 L 115.222656 64.234375 L 113.382812 65.394531 C 112.222656 66.070312 111.0625 66.941406 109.707031 67.90625 C 107.292969 69.648438 104.96875 71.582031 102.746094 73.613281 C 100.328125 75.839844 98.296875 77.871094 96.457031 79.902344 C 94.71875 81.253906 93.074219 82.707031 91.621094 83.960938 C 89.300781 86.089844 86.882812 88.507812 84.371094 91.507812 C 81.5625 94.699219 79.242188 97.792969 77.117188 100.984375 C 73.34375 106.496094 69.957031 112.882812 66.378906 121.003906 C 63.1875 128.355469 60.671875 135.898438 58.738281 142.28125 C 56.515625 149.441406 54.871094 156.984375 53.902344 165.300781 C 53.417969 168.785156 53.226562 172.554688 53.03125 177.390625 C 52.839844 182.128906 52.839844 186.289062 52.9375 190.0625 C 53.128906 195.1875 53.613281 200.699219 54.675781 207.855469 C 55.0625 210.660156 55.546875 213.5625 56.222656 216.5625 C 56.03125 218.398438 55.835938 220.140625 55.644531 221.976562 L 55.644531 222.363281 L 55.449219 224.296875 C 55.355469 224.878906 55.355469 225.460938 55.355469 226.136719 L 55.355469 226.425781 C 55.355469 226.621094 55.355469 226.8125 55.355469 227.105469 L 54.675781 232.328125 L 54.582031 234.066406 L 54.484375 235.808594 C 54.484375 236.292969 54.484375 236.773438 54.386719 237.355469 L 54.386719 238.03125 L 54.289062 242.578125 L 54.195312 247.125 C 54.195312 247.800781 54.195312 248.382812 54.195312 249.058594 L 54.195312 249.929688 C 54.195312 251.574219 54.195312 253.507812 54.289062 255.539062 C 54.386719 258.730469 54.871094 262.210938 55.644531 266.082031 C 56.902344 272.367188 59.222656 278.75 62.703125 285.617188 C 65.894531 291.808594 69.863281 297.609375 74.40625 302.832031 C 78.664062 307.667969 83.59375 312.214844 89.59375 316.761719 C 92.105469 318.597656 94.816406 320.53125 98.199219 322.660156 C 101.292969 324.59375 104.390625 326.433594 107.292969 327.980469 C 113.191406 331.074219 119.574219 333.878906 126.730469 336.394531 C 133.113281 338.617188 139.789062 340.550781 147.429688 342.101562 C 150.71875 342.777344 154.199219 343.355469 158.066406 343.9375 C 159.808594 344.226562 161.550781 344.421875 163.289062 344.613281 L 164.0625 344.710938 C 164.742188 344.808594 165.417969 344.90625 166.09375 344.90625 L 170.15625 345.195312 L 174.800781 345.582031 C 176.347656 345.679688 177.796875 345.871094 179.34375 345.96875 L 179.730469 345.96875 C 180.117188 345.96875 180.503906 346.066406 180.890625 346.066406 L 187.953125 346.257812 L 189.695312 346.355469 C 193.5625 346.453125 197.625 346.546875 201.589844 346.546875 C 209.230469 346.546875 215.515625 346.160156 221.511719 345.386719 C 228.089844 344.421875 235.054688 342.679688 242.210938 340.164062 C 245.597656 339.003906 248.882812 337.554688 252.074219 336.101562 C 254.203125 335.136719 256.332031 333.976562 258.652344 332.621094 C 260.296875 332.234375 261.941406 331.75 263.683594 331.074219 C 266.195312 330.203125 268.226562 329.332031 270.066406 328.558594 C 272.96875 327.300781 275.675781 325.851562 278.285156 324.402344 C 280.800781 322.949219 283.316406 321.304688 285.925781 319.371094 C 286.992188 318.597656 288.34375 317.628906 289.699219 316.46875 L 293.082031 313.664062 L 294.921875 312.214844 L 295.695312 311.539062 C 295.890625 311.34375 296.179688 311.152344 296.371094 310.859375 L 296.46875 310.761719 C 296.757812 310.472656 296.855469 310.375 297.050781 310.183594 L 302.175781 305.25 C 302.273438 305.152344 302.273438 305.152344 302.367188 305.058594 L 302.660156 304.765625 L 304.011719 303.316406 L 305.558594 301.671875 L 307.109375 300.027344 C 310.105469 296.738281 312.8125 293.257812 315.425781 289.777344 C 317.167969 287.261719 318.90625 284.648438 320.453125 282.039062 C 321.710938 279.8125 322.777344 277.976562 323.742188 276.042969 L 325.484375 272.558594 L 327.226562 269.078125 C 327.902344 267.820312 328.480469 266.371094 328.964844 265.304688 C 329.257812 264.628906 329.546875 264.050781 329.738281 263.46875 C 330.222656 262.40625 330.707031 261.246094 331.285156 259.988281 C 331.964844 258.34375 332.449219 256.988281 332.835938 255.828125 C 332.929688 255.441406 333.027344 255.152344 333.125 254.765625 L 333.316406 254.378906 C 333.609375 253.796875 333.800781 253.21875 334.09375 252.539062 L 334.1875 252.347656 L 334.480469 251.476562 C 334.769531 250.800781 334.960938 250.121094 335.15625 249.445312 L 335.253906 249.15625 C 335.347656 248.960938 335.445312 248.671875 335.445312 248.476562 C 336.414062 245.480469 336.898438 243.0625 336.800781 240.835938 C 336.800781 240.0625 336.605469 239.289062 336.21875 238.613281 C 335.929688 238.03125 335.445312 237.644531 334.867188 237.257812 C 334.574219 237.160156 334.382812 237.066406 333.996094 237.066406 C 333.316406 237.066406 332.640625 237.355469 332.351562 237.644531 C 331.675781 238.03125 331.09375 238.613281 330.707031 239.191406 C 330.417969 239.484375 330.222656 239.871094 329.933594 240.257812 C 330.03125 240.0625 330.03125 239.773438 330.03125 239.484375 C 330.125 237.9375 330.03125 236.679688 329.835938 235.519531 C 329.546875 234.164062 328.867188 232.90625 327.804688 231.84375 C 327.128906 231.261719 326.160156 230.488281 325 230.488281 C 324.710938 230.488281 324.421875 230.585938 324.128906 230.683594 C 323.742188 230.777344 323.453125 230.875 323.164062 231.070312 C 322.96875 231.164062 322.777344 231.261719 322.679688 231.359375 L 322.484375 231.457031 C 321.808594 231.84375 321.132812 232.328125 320.453125 232.808594 C 319.292969 233.777344 318.328125 234.9375 317.457031 235.90625 C 317.261719 236.097656 317.167969 236.292969 316.972656 236.484375 C 317.070312 236.292969 317.070312 236.097656 317.070312 235.90625 C 317.167969 234.839844 317.167969 233.679688 317.070312 232.421875 C 316.972656 231.070312 316.875 229.910156 316.585938 228.746094 C 316.199219 227.199219 315.425781 225.941406 314.363281 225.074219 C 313.878906 224.589844 313.296875 224.296875 312.71875 224.105469 C 312.425781 224.007812 312.136719 223.910156 311.847656 223.910156 C 311.75 223.910156 311.652344 223.910156 311.460938 223.910156 C 311.074219 223.910156 310.78125 224.105469 310.492188 224.203125 C 310.300781 224.296875 310.007812 224.394531 309.71875 224.6875 L 309.527344 224.878906 C 309.332031 224.976562 309.140625 225.167969 309.042969 225.265625 L 308.847656 225.460938 C 308.269531 225.941406 307.785156 226.523438 307.300781 227.007812 L 307.109375 227.296875 C 306.140625 228.359375 305.464844 229.617188 304.882812 230.683594 C 304.011719 232.132812 303.335938 233.679688 302.753906 235.035156 C 302.5625 235.421875 302.367188 235.90625 302.175781 236.292969 C 302.175781 235.90625 302.175781 235.519531 302.175781 235.226562 C 301.980469 232.421875 301.402344 229.425781 300.53125 226.425781 C 300.046875 224.878906 299.5625 223.71875 298.886719 222.65625 C 298.210938 221.589844 297.339844 220.332031 296.082031 219.460938 C 295.5 219.074219 294.824219 218.785156 294.148438 218.6875 C 293.953125 218.6875 293.664062 218.6875 293.472656 218.6875 C 293.082031 218.6875 292.601562 218.6875 292.117188 218.882812 C 291.535156 218.980469 290.859375 219.269531 290.183594 219.558594 C 289.890625 219.65625 289.699219 219.851562 289.410156 220.042969 L 289.117188 220.238281 C 288.730469 220.527344 288.34375 220.816406 288.152344 221.105469 C 286.21875 222.945312 284.667969 225.265625 283.316406 228.554688 L 283.414062 228.070312 L 283.414062 227.394531 C 283.414062 225.167969 283.414062 222.847656 283.414062 220.625 L 283.414062 220.238281 C 283.414062 217.335938 283.414062 214.53125 283.414062 211.726562 C 283.414062 208.726562 283.316406 205.730469 283.316406 202.730469 L 283.316406 199.636719 C 283.316406 198.667969 283.316406 197.605469 283.316406 196.636719 L 283.316406 193.734375 C 283.316406 189.964844 283.21875 185.707031 283.023438 181.550781 C 282.929688 180.679688 282.929688 179.90625 282.929688 179.035156 L 282.929688 178.066406 C 282.832031 176.132812 282.734375 174.101562 282.542969 172.070312 L 282.058594 167.527344 L 281.671875 162.980469 C 281.574219 162.304688 281.476562 161.820312 281.382812 161.238281 L 281.285156 160.660156 L 280.316406 154.855469 C 280.027344 152.921875 279.542969 150.988281 279.253906 149.246094 L 279.15625 148.957031 L 278.867188 147.503906 C 277.414062 140.542969 275.480469 133.867188 273.257812 127.679688 C 272.097656 124.390625 270.644531 121.003906 269 117.621094 C 267.164062 113.847656 264.9375 110.464844 262.714844 107.367188 C 258.75 101.660156 254.011719 96.246094 248.691406 91.214844 C 245.113281 87.929688 241.050781 84.542969 236.019531 80.964844 L 234.957031 80.191406 L 234.761719 79.996094 C 232.347656 78.257812 229.636719 76.320312 226.929688 74.484375 C 220.835938 70.421875 213.96875 66.941406 206.039062 63.84375 C 202.945312 62.589844 199.65625 61.523438 196.269531 60.460938 L 196.65625 60.074219 C 197.625 59.007812 198.496094 57.945312 199.269531 56.882812 C 201.105469 54.464844 202.652344 51.757812 203.910156 49.046875 C 204.492188 47.886719 204.976562 46.53125 205.363281 44.890625 C 205.75 43.4375 205.75 41.890625 205.457031 40.441406 C 205.265625 39.761719 205.070312 38.988281 204.683594 38.410156 C 204.296875 37.828125 203.910156 37.34375 203.425781 36.957031 C 202.75 36.476562 201.976562 36.183594 201.203125 36.183594 L 201.105469 36.183594 C 200.332031 36.183594 199.558594 36.378906 198.785156 36.570312 C 198.300781 36.667969 197.722656 36.957031 197.238281 37.152344 L 196.753906 37.34375 L 195.882812 37.636719 L 195.011719 37.925781 C 194.917969 37.925781 194.722656 38.023438 194.625 38.117188 L 194.238281 38.3125 L 192.789062 38.988281 C 192.207031 39.28125 191.628906 39.570312 190.949219 39.859375 C 190.5625 40.054688 190.175781 40.246094 189.789062 40.441406 C 188.917969 40.921875 187.953125 41.40625 186.984375 41.988281 L 186.40625 42.375 L 186.597656 42.277344 C 187.757812 40.441406 188.824219 38.699219 189.789062 37.054688 L 190.175781 36.378906 C 190.660156 35.410156 191.242188 34.445312 191.628906 33.378906 C 191.917969 32.703125 192.113281 31.929688 192.304688 31.347656 C 192.402344 30.863281 192.691406 29.703125 192.304688 28.738281 C 191.917969 27.578125 190.855469 26.320312 189.308594 26.320312 L 189.210938 26.320312 C 188.050781 26.417969 187.082031 26.898438 186.210938 27.285156 L 186.019531 27.382812 C 184.375 28.15625 182.246094 29.222656 180.3125 30.382812 C 178.378906 31.542969 176.347656 32.703125 174.316406 33.960938 L 174.703125 33.574219 C 175.28125 32.894531 175.863281 32.21875 176.539062 31.347656 C 177.410156 30.285156 178.183594 29.125 178.957031 27.867188 C 179.636719 26.804688 180.601562 25.351562 181.472656 23.804688 C 182.054688 22.742188 182.632812 21.484375 183.214844 19.9375 C 183.792969 18.292969 184.179688 16.839844 184.375 15.390625 C 184.566406 13.941406 184.472656 12.488281 184.085938 11.039062 C 183.988281 10.746094 183.988281 10.554688 183.890625 10.265625 C 183.792969 9.972656 183.601562 9.585938 183.40625 9.296875 C 182.054688 8.332031 181.375 7.945312 180.601562 7.945312 Z M 180.601562 7.945312 " fill-opacity="1" fill-rule="nonzero"/></g><path fill="#fff8e5" d="M 157.003906 198.863281 C 153.617188 198.957031 149.847656 199.636719 145.785156 200.796875 C 142.398438 201.765625 138.722656 203.3125 134.660156 205.535156 C 131.761719 207.082031 128.859375 209.113281 125.472656 211.824219 C 122.574219 214.144531 119.960938 216.65625 117.542969 219.65625 C 115.027344 222.75 112.804688 225.941406 111.0625 229.039062 C 109.320312 232.132812 107.773438 235.710938 106.128906 240.449219 C 103.324219 248.574219 102.261719 257.183594 101.777344 263.855469 C 101.488281 268.015625 101.292969 271.691406 101.199219 275.269531 C 101.199219 278.558594 101.199219 282.8125 101.777344 287.066406 C 102.261719 291.035156 103.132812 294.707031 104.390625 298.382812 C 105.550781 301.960938 107.195312 305.636719 109.417969 309.601562 C 112.804688 315.792969 117.347656 321.886719 123.152344 327.785156 C 127.214844 331.945312 131.566406 335.523438 136.210938 338.519531 C 140.753906 341.421875 145.976562 343.9375 151.78125 346.066406 C 155.941406 347.613281 160.195312 348.484375 164.546875 349.0625 C 165.515625 348.097656 166.578125 347.128906 167.546875 346.257812 C 174.414062 339.683594 181.183594 333.007812 188.144531 326.433594 C 192.886719 321.886719 197.625 317.339844 202.460938 312.988281 C 207.101562 308.734375 211.84375 304.574219 216.484375 300.316406 C 218.417969 298.578125 220.351562 296.835938 222.289062 295.191406 C 222.09375 293.839844 221.902344 292.386719 221.804688 290.9375 C 221.417969 284.554688 221.417969 278.074219 221.609375 271.691406 C 221.125 265.984375 220.160156 259.695312 218.320312 253.699219 C 215.128906 242.964844 208.648438 232.617188 199.65625 223.816406 C 195.785156 220.042969 191.046875 216.464844 185.726562 213.371094 C 185.148438 213.078125 184.664062 212.789062 184.085938 212.402344 C 185.4375 211.144531 186.113281 209.308594 186.113281 207.46875 C 186.113281 205.632812 185.339844 203.792969 184.085938 202.539062 L 182.921875 201.667969 L 182.632812 201.472656 C 181.570312 200.796875 180.3125 200.507812 179.054688 200.507812 C 177.894531 200.410156 176.734375 200.214844 175.574219 200.121094 C 170.253906 199.539062 164.835938 198.863281 159.421875 198.863281 C 158.746094 198.863281 157.875 198.863281 157.003906 198.863281 Z M 157.003906 198.863281 " fill-opacity="1" fill-rule="nonzero"/><path fill="#fff8e5" d="M 213.679688 211.433594 C 211.9375 211.917969 210.390625 213.078125 209.519531 214.628906 C 208.648438 216.175781 208.167969 218.300781 208.84375 220.042969 C 209.8125 222.75 210.585938 225.363281 211.066406 228.167969 C 211.84375 235.035156 211.84375 241.996094 211.84375 248.863281 C 211.84375 254.667969 211.84375 260.375 211.84375 266.175781 C 211.84375 271.980469 211.84375 277.78125 212.035156 283.585938 C 212.230469 289.871094 212.808594 296.160156 214.550781 302.15625 C 215.226562 301.574219 215.902344 300.898438 216.582031 300.316406 C 218.515625 298.578125 220.449219 296.835938 222.382812 295.191406 C 222.191406 293.839844 221.996094 292.386719 221.902344 291.035156 C 221.320312 282.617188 221.707031 274.300781 221.902344 265.886719 C 221.996094 264.242188 221.996094 262.597656 222.09375 260.953125 C 222.382812 258.054688 222.578125 255.152344 222.867188 252.347656 C 222.964844 250.703125 223.0625 249.058594 223.351562 247.414062 C 223.738281 244.804688 224.027344 242.191406 224.414062 239.675781 C 224.800781 237.066406 225.09375 234.453125 225.480469 231.84375 C 225.382812 230.199219 225.1875 228.554688 224.996094 227.007812 C 224.707031 225.167969 224.511719 223.332031 224.027344 221.589844 C 223.640625 219.851562 222.964844 218.207031 222.382812 216.464844 C 221.707031 214.722656 220.835938 213.273438 219.191406 212.304688 C 218.128906 211.628906 216.871094 211.339844 215.613281 211.339844 C 214.839844 211.144531 214.257812 211.242188 213.679688 211.433594 Z M 213.679688 211.433594 " fill-opacity="1" fill-rule="nonzero"/><path fill="#fff8e5" d="M 180.3125 333.394531 C 178.957031 334.167969 177.894531 335.425781 177.3125 336.878906 C 178.667969 335.523438 180.117188 334.167969 181.472656 332.816406 C 181.085938 333.007812 180.699219 333.203125 180.3125 333.394531 Z M 180.3125 333.394531 " fill-opacity="1" fill-rule="nonzero"/><path fill="#fff8e5" d="M 205.265625 204.761719 C 203.8125 205.632812 202.363281 207.179688 202.074219 208.921875 C 201.394531 212.304688 200.71875 215.789062 200.140625 219.171875 C 199.367188 223.523438 198.882812 227.878906 198.589844 232.230469 C 198.300781 235.710938 198.203125 239.289062 198.011719 242.867188 C 197.816406 248.476562 197.625 254.183594 197.429688 259.792969 C 197.238281 264.726562 197.238281 269.753906 197.238281 274.6875 C 197.140625 282.039062 197.335938 289.484375 198.882812 296.738281 C 199.171875 298.382812 199.65625 299.929688 200.042969 301.574219 C 200.140625 302.15625 200.332031 302.640625 200.527344 303.21875 C 200.621094 303.414062 200.621094 303.703125 200.71875 303.898438 C 200.816406 304.285156 200.914062 304.671875 201.007812 305.058594 C 201.203125 305.832031 201.589844 306.507812 201.976562 307.183594 C 202.558594 308.152344 203.332031 309.023438 204.296875 309.601562 C 204.296875 310.183594 204.394531 310.761719 204.394531 311.246094 C 208.457031 307.570312 212.519531 303.992188 216.484375 300.316406 C 216.871094 299.929688 217.257812 299.640625 217.644531 299.351562 C 217.355469 294.707031 217.257812 290.066406 217.066406 285.425781 C 216.96875 281.75 216.871094 278.171875 216.773438 274.496094 C 216.773438 270.820312 216.773438 267.046875 216.773438 263.371094 C 216.773438 252.539062 216.773438 241.609375 216.773438 230.777344 C 216.773438 228.554688 216.773438 226.328125 216.773438 224.007812 C 216.773438 221.976562 215.808594 220.042969 214.355469 218.6875 C 214.742188 216.660156 215.128906 214.628906 215.613281 212.597656 C 216 210.660156 215.902344 208.921875 214.9375 207.179688 C 214.066406 205.632812 212.519531 204.472656 210.777344 203.988281 C 210.199219 203.792969 209.519531 203.699219 208.941406 203.699219 C 207.585938 203.792969 206.425781 204.183594 205.265625 204.761719 Z M 205.265625 204.761719 " fill-opacity="1" fill-rule="nonzero"/><path fill="#fff8e5" d="M 101.003906 207.855469 C 99.359375 210.855469 97.714844 213.851562 96.167969 216.949219 C 94.332031 220.71875 93.074219 224.78125 92.105469 228.84375 C 91.234375 232.617188 90.65625 236.582031 90.269531 240.449219 C 89.785156 244.320312 89.59375 248.285156 89.398438 252.152344 C 89.109375 259.792969 89.011719 267.335938 89.785156 274.882812 C 90.171875 278.847656 90.847656 282.714844 91.816406 286.585938 C 92.878906 290.742188 94.425781 294.613281 96.167969 298.578125 C 99.070312 305.445312 103.132812 311.828125 107.871094 317.628906 C 110.097656 320.339844 112.609375 322.757812 115.027344 325.175781 C 117.929688 327.980469 121.023438 330.492188 124.410156 332.71875 C 127.601562 334.847656 131.082031 336.394531 134.757812 337.652344 C 137.273438 338.617188 139.789062 339.296875 142.398438 339.777344 C 144.914062 340.359375 147.523438 340.84375 150.039062 341.230469 C 154.003906 341.808594 157.96875 342.390625 162.03125 342.777344 C 163.773438 342.96875 165.804688 341.90625 166.964844 340.746094 C 168.320312 339.390625 168.996094 337.652344 168.996094 335.8125 C 168.996094 333.976562 168.222656 332.136719 166.964844 330.878906 C 166.480469 330.492188 166 330.105469 165.515625 329.816406 C 164.449219 329.140625 163.191406 328.847656 161.9375 328.847656 C 160.097656 328.65625 158.164062 328.460938 156.328125 328.171875 C 149.652344 327.109375 142.980469 325.949219 136.691406 323.53125 C 133.984375 322.273438 131.566406 320.726562 129.148438 318.984375 C 127.019531 317.242188 124.988281 315.40625 123.054688 313.472656 C 121.023438 311.441406 118.992188 309.3125 117.15625 307.089844 C 113.578125 302.253906 110.675781 297.125 108.257812 291.613281 C 106.226562 286.585938 104.679688 281.363281 103.90625 275.945312 C 103.617188 273.140625 103.324219 270.335938 103.230469 267.53125 C 103.035156 264.144531 103.132812 260.859375 103.230469 257.472656 C 103.324219 251.1875 103.710938 244.898438 104.484375 238.613281 C 105.164062 233.777344 106.324219 229.039062 108.066406 224.394531 C 109.613281 221.105469 111.351562 217.914062 113.09375 214.722656 C 114.929688 211.339844 113.964844 207.082031 110.578125 205.148438 C 109.515625 204.472656 108.257812 204.179688 107.097656 204.179688 C 104.679688 204.472656 102.261719 205.632812 101.003906 207.855469 Z M 101.003906 207.855469 " fill-opacity="1" fill-rule="nonzero"/><path fill="#fff8e5" d="M 106.515625 211.433594 C 105.550781 214.820312 104.582031 218.207031 104.003906 221.6875 C 103.324219 225.75 102.9375 229.8125 102.648438 233.96875 C 102.164062 241.707031 102.066406 249.542969 102.9375 257.277344 C 103.324219 261.148438 104.097656 264.917969 105.355469 268.59375 C 106.613281 272.078125 108.160156 275.558594 110 278.847656 C 111.351562 281.363281 112.996094 283.683594 114.640625 286.003906 C 115.707031 287.550781 116.769531 289.003906 117.832031 290.550781 C 118.898438 292.097656 120.15625 293.257812 121.992188 293.742188 C 123.828125 294.226562 125.765625 294.03125 127.40625 293.0625 C 128.957031 292.195312 130.117188 290.644531 130.601562 288.90625 C 131.082031 287.261719 130.988281 284.941406 129.921875 283.488281 C 128.761719 281.84375 127.601562 280.199219 126.441406 278.558594 C 125.085938 276.621094 123.828125 274.589844 122.574219 272.558594 C 121.410156 270.722656 120.542969 268.789062 119.671875 266.757812 C 118.414062 263.664062 117.542969 260.472656 116.960938 257.085938 C 116.382812 252.25 116.1875 247.316406 116.285156 242.386719 C 116.382812 237.066406 116.671875 231.84375 117.347656 226.523438 C 117.929688 222.65625 118.898438 218.785156 120.058594 215.015625 C 121.121094 211.339844 118.800781 207.375 115.125 206.40625 C 114.542969 206.210938 113.867188 206.117188 113.289062 206.117188 C 110.289062 206.308594 107.484375 208.4375 106.515625 211.433594 Z M 106.515625 211.433594 " fill-opacity="1" fill-rule="nonzero"/><path fill="#fff8e5" d="M 102.261719 96.824219 C 100.039062 97.019531 97.621094 97.308594 95.203125 97.890625 C 92.6875 98.46875 90.269531 99.4375 87.5625 100.597656 C 80.308594 103.789062 73.730469 108.722656 68.023438 115.300781 C 61.835938 122.261719 56.804688 131.0625 53.417969 140.832031 C 49.453125 152.4375 48.195312 164.527344 49.839844 174.875 C 49.746094 174.972656 49.746094 174.972656 49.648438 175.070312 C 49.261719 175.746094 49.164062 176.425781 49.359375 177.292969 C 50.90625 185.804688 54.484375 194.125 60.09375 201.957031 C 65.027344 208.921875 71.410156 215.304688 79.535156 221.398438 C 86.398438 226.523438 94.332031 231.070312 103.230469 234.9375 C 108.453125 237.257812 113.964844 239.191406 119.476562 240.933594 C 123.925781 236.292969 129.246094 232.421875 135.144531 229.910156 C 138.820312 228.359375 142.59375 227.105469 146.558594 226.523438 C 149.265625 226.136719 151.972656 225.847656 154.777344 225.847656 C 155.746094 225.847656 156.808594 225.847656 157.777344 225.941406 C 158.453125 226.039062 159.132812 226.039062 159.808594 226.136719 C 160.386719 226.136719 160.96875 226.136719 161.550781 226.136719 C 164.644531 226.136719 167.640625 226.425781 170.738281 227.007812 C 175.765625 226.621094 180.796875 226.523438 185.824219 226.523438 C 188.242188 226.523438 190.757812 226.523438 193.175781 226.8125 C 195.691406 227.105469 198.109375 227.394531 200.621094 227.972656 C 202.558594 228.359375 204.296875 229.132812 205.941406 230.199219 C 208.359375 231.648438 209.519531 234.550781 208.84375 237.257812 C 208.359375 239 207.875 240.644531 206.523438 241.902344 C 205.457031 242.964844 204.105469 243.640625 202.75 244.125 C 200.914062 244.804688 198.882812 244.996094 196.851562 245.191406 C 196.851562 245.285156 196.851562 245.382812 196.949219 245.382812 C 209.035156 243.253906 220.449219 239.773438 231.089844 234.9375 C 244.144531 229.039062 255.074219 221.398438 263.488281 212.210938 C 272.097656 202.828125 277.609375 191.996094 279.445312 180.871094 L 279.445312 180.484375 C 279.542969 179.617188 279.738281 178.746094 279.832031 177.875 L 279.832031 177.679688 C 279.929688 177.292969 279.929688 177.003906 279.929688 176.617188 L 279.929688 174.78125 C 279.929688 174.78125 279.929688 174.683594 279.929688 174.683594 L 279.929688 174.296875 C 280.027344 172.84375 280.027344 171.394531 279.929688 169.945312 C 280.21875 166.460938 280.21875 162.691406 280.027344 158.433594 C 279.738281 153.695312 278.964844 149.054688 277.707031 144.796875 C 276.351562 140.445312 274.417969 135.804688 271.804688 130.96875 C 269.96875 127.484375 267.550781 123.90625 264.9375 120.328125 C 261.652344 115.976562 258.75 112.6875 255.558594 109.882812 C 248.59375 103.691406 239.792969 99.628906 230.023438 98.179688 C 226.640625 97.695312 223.449219 97.40625 220.257812 97.40625 C 218.804688 97.40625 217.453125 97.503906 216.097656 97.503906 C 213.871094 97.695312 211.550781 97.988281 209.035156 98.46875 C 195.691406 99.824219 180.890625 111.527344 171.414062 128.453125 C 167.253906 135.898438 164.355469 143.832031 163 151.566406 C 162.710938 148.570312 162.03125 145.472656 161.164062 142.574219 C 159.90625 138.414062 157.96875 133.964844 155.457031 129.226562 C 153.617188 125.9375 151.394531 122.457031 148.78125 118.972656 C 145.6875 114.816406 142.785156 111.625 139.789062 108.914062 C 133.113281 102.917969 124.601562 99.050781 115.222656 97.695312 C 111.933594 97.214844 108.839844 97.019531 105.742188 97.019531 C 104.96875 96.632812 103.617188 96.730469 102.261719 96.824219 Z M 102.261719 96.824219 " fill-opacity="1" fill-rule="nonzero"/><path fill="#fff8e5" d="M 184.277344 247.027344 C 184.375 247.027344 184.375 247.027344 184.472656 247.027344 C 184.472656 246.929688 184.375 246.929688 184.375 246.832031 C 184.277344 246.929688 184.277344 247.027344 184.277344 247.027344 Z M 184.277344 247.027344 " fill-opacity="1" fill-rule="nonzero"/><path fill="#f9a846" d="M 263.972656 314.921875 C 263.390625 314.921875 262.8125 315.019531 262.230469 315.210938 C 261.265625 315.503906 260.394531 315.792969 259.523438 316.082031 C 258.652344 316.46875 257.6875 316.953125 257.007812 317.339844 L 256.332031 317.726562 L 254.203125 318.792969 L 252.851562 319.46875 C 251.59375 320.144531 250.238281 320.917969 248.980469 321.597656 L 247.53125 322.371094 C 244.144531 324.304688 240.664062 326.433594 238.050781 328.074219 L 233.023438 331.265625 C 226.929688 335.136719 220.835938 339.003906 214.742188 342.777344 C 213.777344 343.453125 213.003906 344.421875 212.808594 345.679688 C 212.519531 347.03125 212.808594 348.386719 213.582031 349.449219 C 213.96875 350.128906 214.550781 350.609375 215.226562 350.902344 C 214.066406 351.769531 213.390625 352.738281 213.195312 353.996094 C 212.90625 355.253906 213.195312 356.605469 213.96875 357.671875 C 214.839844 358.929688 216.484375 359.800781 218.128906 359.800781 C 219.09375 359.800781 220.0625 359.507812 220.738281 358.929688 C 221.996094 357.863281 223.542969 357.089844 224.898438 356.316406 C 225.480469 356.027344 225.960938 355.738281 226.542969 355.445312 C 228.1875 354.480469 229.734375 353.609375 231.183594 352.738281 C 232.441406 351.964844 233.988281 350.996094 235.441406 350.03125 C 235.925781 349.742188 236.3125 349.449219 236.792969 349.160156 C 237.859375 348.484375 238.824219 347.902344 239.792969 347.128906 L 241.339844 345.96875 L 241.535156 345.773438 C 243.757812 344.226562 245.984375 342.582031 248.109375 340.84375 L 250.914062 338.617188 L 253.71875 336.394531 C 256.136719 334.460938 258.75 332.332031 261.746094 329.527344 C 262.132812 329.140625 262.519531 328.847656 262.910156 328.460938 L 263.199219 328.171875 C 264.070312 327.398438 265.035156 326.625 265.90625 325.753906 C 266.679688 324.980469 267.261719 324.015625 267.839844 323.046875 L 267.9375 322.949219 C 268.421875 322.175781 268.519531 321.113281 268.613281 320.144531 C 268.808594 319.179688 268.710938 318.308594 268.421875 317.4375 C 268.132812 316.664062 267.648438 315.984375 266.96875 315.40625 C 266.195312 315.308594 265.132812 314.921875 263.972656 314.921875 Z M 263.972656 314.921875 " fill-opacity="1" fill-rule="nonzero"/><path fill="#ffc300" d="M 231.765625 193.640625 C 230.796875 193.640625 229.832031 193.640625 228.863281 193.734375 C 227.414062 193.832031 225.867188 194.125 224.222656 194.511719 C 222.480469 194.898438 220.835938 195.671875 219.386719 196.347656 C 216.582031 197.605469 214.066406 199.539062 212.421875 201.765625 C 211.550781 202.925781 211.066406 204.085938 210.585938 205.34375 C 210.292969 206.019531 210.199219 207.082031 210.101562 207.664062 C 210.101562 207.761719 210.101562 207.953125 210.101562 208.050781 L 210.101562 208.535156 C 210.003906 209.40625 210.003906 210.082031 210.199219 210.757812 C 210.585938 212.304688 211.453125 213.660156 212.90625 214.820312 C 213.390625 215.207031 213.96875 215.59375 214.648438 215.980469 C 215.324219 216.367188 216.195312 216.5625 216.675781 216.753906 C 217.742188 217.046875 218.902344 217.238281 220.0625 217.335938 L 220.738281 217.433594 C 221.222656 217.433594 221.609375 217.527344 222.09375 217.527344 C 223.0625 217.527344 224.027344 217.433594 224.800781 217.335938 C 226.542969 217.140625 228.285156 216.753906 230.121094 216.175781 C 232.539062 215.402344 235.054688 214.242188 237.570312 212.597656 C 240.375 210.855469 242.5 209.015625 243.953125 206.988281 C 244.824219 205.730469 245.402344 204.570312 245.691406 203.214844 L 245.789062 202.246094 C 245.886719 201.667969 245.886719 201.085938 245.691406 200.601562 L 245.597656 200.023438 C 245.402344 199.539062 245.210938 199.054688 245.015625 198.570312 L 244.628906 198.183594 C 244.339844 197.703125 243.953125 197.316406 243.660156 197.023438 C 243.179688 196.542969 242.597656 196.152344 242.015625 195.765625 C 240.761719 194.992188 239.210938 194.703125 237.761719 194.414062 C 236.3125 194.125 234.859375 194.027344 233.3125 193.929688 C 232.734375 193.640625 232.25 193.640625 231.765625 193.640625 Z M 231.765625 193.640625 " fill-opacity="1" fill-rule="nonzero"/><path fill="#ffc300" d="M 87.175781 190.253906 C 86.109375 190.253906 85.046875 190.351562 83.789062 190.542969 C 83.113281 190.640625 82.339844 190.835938 81.5625 191.027344 C 80.789062 191.222656 79.921875 191.609375 79.242188 191.996094 L 78.953125 192.1875 C 77.597656 192.867188 76.4375 193.929688 75.472656 195.285156 C 74.988281 195.960938 74.699219 196.734375 74.503906 197.410156 C 74.40625 197.992188 74.3125 198.765625 74.40625 199.539062 C 74.601562 200.988281 75.085938 202.246094 75.953125 203.40625 C 76.921875 204.570312 78.082031 205.632812 79.628906 206.695312 C 81.5625 207.953125 83.789062 208.824219 86.398438 209.5 C 87.078125 209.695312 87.65625 209.886719 88.335938 210.082031 C 89.59375 210.46875 90.945312 210.660156 92.203125 210.855469 C 93.652344 211.046875 95.105469 211.144531 96.652344 211.144531 L 97.234375 211.144531 C 98.683594 211.144531 100.230469 210.855469 101.585938 210.660156 C 103.035156 210.371094 104.292969 209.792969 105.648438 209.210938 C 106.226562 208.921875 107 208.4375 107.582031 207.855469 C 108.160156 207.277344 108.742188 206.695312 109.03125 206.019531 C 109.320312 205.4375 109.613281 204.761719 109.707031 203.988281 C 109.804688 203.40625 109.804688 202.925781 109.804688 202.441406 C 109.707031 201.957031 109.613281 201.375 109.515625 200.894531 C 109.320312 200.3125 109.03125 199.636719 108.644531 198.957031 C 108.355469 198.476562 107.96875 197.992188 107.582031 197.605469 L 107.292969 197.316406 C 106.515625 196.445312 105.550781 195.765625 104.582031 195.1875 L 104.097656 194.800781 C 103.035156 194.027344 101.777344 193.445312 100.714844 192.960938 C 99.359375 192.382812 97.8125 191.800781 95.878906 191.320312 C 94.621094 190.929688 93.363281 190.835938 91.816406 190.640625 C 90.269531 190.449219 88.914062 190.351562 87.464844 190.351562 C 87.464844 190.253906 87.269531 190.253906 87.175781 190.253906 Z M 87.175781 190.253906 " fill-opacity="1" fill-rule="nonzero"/><path fill="#000000" d="M 119.765625 157.175781 C 119.285156 157.273438 118.800781 157.371094 118.316406 157.5625 C 116.960938 158.046875 115.707031 158.820312 114.542969 159.789062 C 113.675781 160.5625 112.902344 161.53125 112.222656 162.496094 C 111.351562 163.753906 110.773438 165.109375 110.191406 166.460938 C 109.226562 168.878906 108.933594 171.492188 108.546875 174.101562 C 108.257812 176.90625 108.257812 179.808594 108.644531 182.515625 C 109.03125 184.933594 109.902344 187.351562 111.351562 189.289062 C 112.222656 190.542969 113.191406 191.511719 114.449219 192.382812 C 115.609375 193.15625 116.867188 193.734375 118.125 194.125 C 118.800781 194.316406 119.574219 194.316406 120.347656 194.414062 C 120.929688 194.511719 121.410156 194.414062 121.992188 194.414062 C 122.863281 194.316406 123.441406 194.21875 124.214844 193.929688 C 124.988281 193.640625 125.570312 193.347656 126.246094 192.960938 C 128.664062 191.511719 130.40625 189.191406 131.664062 186.675781 C 133.308594 183.386719 133.886719 179.617188 134.273438 175.941406 C 134.46875 174.488281 134.46875 173.039062 134.371094 171.589844 C 134.273438 169.75 133.984375 167.914062 133.5 166.269531 C 133.210938 165.398438 132.921875 164.625 132.535156 163.851562 C 132.148438 162.980469 131.46875 162.304688 130.988281 161.625 C 130.601562 161.046875 130.019531 160.660156 129.4375 160.273438 C 128.761719 159.5 127.890625 158.917969 127.019531 158.433594 C 125.472656 157.46875 123.734375 157.175781 121.992188 157.082031 C 121.894531 157.082031 121.796875 157.082031 121.703125 157.082031 C 121.121094 156.886719 120.347656 157.082031 119.765625 157.175781 Z M 119.765625 157.175781 " fill-opacity="1" fill-rule="nonzero"/><path fill="#000000" d="M 192.113281 158.820312 C 191.242188 159.015625 190.46875 159.402344 189.597656 159.789062 C 189.113281 159.980469 188.726562 160.273438 188.339844 160.5625 C 187.757812 161.046875 187.179688 161.433594 186.695312 161.917969 C 186.210938 162.398438 185.726562 163.078125 185.339844 163.65625 C 185.050781 164.042969 184.761719 164.527344 184.566406 164.914062 C 183.308594 167.140625 182.535156 169.652344 182.148438 172.167969 C 181.761719 174.585938 181.472656 177.101562 181.570312 179.617188 C 181.570312 180.96875 181.761719 182.226562 181.957031 183.582031 C 182.246094 185.03125 182.828125 186.289062 183.308594 187.644531 C 183.792969 188.804688 184.566406 189.769531 185.4375 190.738281 C 186.210938 191.707031 187.371094 192.382812 188.4375 192.960938 C 189.113281 193.253906 189.789062 193.542969 190.46875 193.734375 C 191.144531 193.929688 191.917969 193.929688 192.691406 194.027344 C 193.464844 194.125 194.335938 193.929688 195.011719 193.832031 C 195.882812 193.640625 196.851562 193.347656 197.625 192.960938 C 198.398438 192.480469 199.171875 191.996094 199.847656 191.414062 C 200.71875 190.738281 201.394531 189.964844 202.074219 189.09375 C 203.234375 187.644531 204.007812 185.902344 204.589844 184.160156 C 204.683594 183.96875 204.78125 183.679688 204.976562 183.484375 C 205.652344 182.128906 206.136719 180.777344 206.425781 179.324219 C 207.007812 177.003906 207.199219 174.488281 207.199219 172.167969 C 207.199219 169.558594 206.425781 166.847656 204.976562 164.625 C 204.296875 163.464844 203.332031 162.496094 202.363281 161.625 C 201.785156 161.144531 201.203125 160.757812 200.527344 160.367188 C 199.847656 159.980469 199.074219 159.691406 198.398438 159.5 C 197.816406 159.304688 197.335938 159.207031 196.753906 159.113281 C 195.980469 159.015625 195.304688 158.917969 194.53125 158.917969 C 194.433594 158.917969 194.433594 158.917969 194.335938 158.917969 C 193.464844 158.628906 192.691406 158.726562 192.113281 158.820312 Z M 194.820312 179.132812 C 194.917969 179.230469 195.011719 179.230469 195.011719 179.324219 C 194.917969 179.230469 194.820312 179.230469 194.820312 179.132812 Z M 194.820312 179.132812 " fill-opacity="1" fill-rule="nonzero"/><path fill="#000000" d="M 193.078125 155.726562 C 191.433594 156.113281 189.984375 157.082031 188.726562 158.144531 C 187.46875 159.113281 186.40625 160.273438 185.535156 161.625 C 184.859375 162.398438 184.277344 163.269531 183.792969 164.238281 C 183.117188 165.398438 182.632812 166.753906 182.148438 168.007812 C 181.667969 169.171875 181.375 170.425781 181.183594 171.683594 C 180.699219 174.101562 180.410156 176.714844 180.410156 179.230469 C 180.410156 180.582031 180.503906 182.035156 180.796875 183.386719 C 180.988281 184.933594 181.472656 186.191406 182.148438 187.644531 C 182.535156 188.609375 183.019531 189.578125 183.695312 190.449219 C 184.566406 191.707031 185.535156 192.671875 186.792969 193.542969 C 187.757812 194.316406 188.921875 194.800781 190.082031 195.285156 C 191.433594 195.765625 192.789062 195.960938 194.238281 196.152344 C 195.59375 196.25 196.949219 196.058594 198.300781 195.765625 C 198.976562 195.671875 199.847656 195.1875 200.429688 194.992188 C 200.914062 194.800781 201.300781 194.511719 201.785156 194.21875 C 204.105469 192.671875 205.941406 190.351562 207.296875 187.835938 C 209.8125 183.195312 210.777344 177.679688 210.679688 172.457031 C 210.679688 171.105469 210.488281 169.75 210.292969 168.492188 C 210.101562 167.234375 209.617188 166.074219 209.132812 165.011719 C 208.648438 163.949219 208.070312 162.980469 207.488281 162.109375 C 206.714844 160.949219 205.75 159.886719 204.683594 158.917969 C 203.8125 158.144531 202.847656 157.46875 201.6875 156.886719 C 200.234375 156.210938 198.785156 155.726562 197.238281 155.628906 C 196.949219 155.628906 196.65625 155.628906 196.367188 155.628906 C 195.011719 155.339844 194.046875 155.53125 193.078125 155.726562 Z M 196.269531 164.625 C 196.464844 164.722656 196.65625 164.722656 196.851562 164.816406 C 197.238281 165.011719 197.527344 165.203125 197.914062 165.398438 C 198.398438 165.785156 198.785156 166.171875 199.171875 166.65625 C 199.65625 167.332031 200.140625 168.105469 200.527344 168.878906 C 200.71875 169.460938 200.914062 170.136719 201.007812 170.71875 C 201.203125 172.75 201.105469 174.78125 200.914062 176.714844 C 200.621094 178.453125 200.140625 180.195312 199.558594 181.839844 C 198.980469 183 198.398438 184.066406 197.625 185.128906 C 197.335938 185.417969 197.042969 185.804688 196.753906 186.09375 C 196.5625 186.289062 196.269531 186.386719 195.980469 186.578125 C 195.785156 186.675781 195.691406 186.675781 195.496094 186.675781 C 195.011719 186.675781 194.625 186.675781 194.144531 186.675781 C 193.660156 186.578125 193.273438 186.484375 192.789062 186.289062 C 192.5 186.09375 192.113281 185.902344 191.820312 185.707031 C 191.628906 185.515625 191.339844 185.320312 191.144531 185.03125 C 190.855469 184.546875 190.5625 183.96875 190.273438 183.484375 C 190.175781 183.195312 190.082031 183 190.082031 182.710938 C 190.175781 181.648438 190.273438 180.484375 190.273438 179.421875 C 190.371094 177.488281 190.46875 175.457031 190.757812 173.523438 C 191.046875 171.976562 191.339844 170.523438 191.917969 168.976562 C 192.207031 168.300781 192.59375 167.621094 193.078125 166.945312 C 193.5625 166.367188 194.144531 165.785156 194.625 165.300781 C 194.722656 165.203125 194.820312 165.109375 194.917969 165.011719 C 195.109375 164.914062 195.304688 164.816406 195.496094 164.722656 C 195.691406 164.722656 195.785156 164.625 195.980469 164.625 C 195.980469 164.625 196.078125 164.625 196.269531 164.625 Z M 196.269531 164.625 " fill-opacity="1" fill-rule="nonzero"/><path fill="#f9a846" d="M 160.386719 174.296875 C 160.292969 174.296875 160.195312 174.296875 160.195312 174.296875 C 159.90625 174.296875 159.710938 174.296875 159.519531 174.394531 C 158.746094 174.585938 158.066406 174.875 157.582031 175.167969 C 157.003906 175.457031 156.421875 175.941406 155.84375 176.519531 C 155.457031 176.90625 155.070312 177.390625 154.875 177.679688 L 154.777344 177.875 L 154.683594 177.972656 C 154.390625 178.359375 154.101562 178.746094 153.8125 179.132812 L 153.714844 179.324219 C 152.941406 180.390625 152.265625 181.550781 151.78125 182.515625 L 151.585938 182.902344 C 150.71875 184.453125 150.039062 186.09375 149.363281 187.644531 L 149.265625 187.835938 C 148.78125 188.902344 148.394531 189.964844 147.910156 190.929688 C 147.136719 192.671875 146.558594 194.414062 145.976562 196.058594 L 145.785156 196.542969 C 145.6875 196.832031 145.589844 197.21875 145.496094 197.507812 L 145.398438 197.703125 L 145.300781 197.992188 C 145.203125 198.183594 145.203125 198.28125 145.203125 198.476562 L 145.203125 198.957031 L 145.105469 199.25 L 145.105469 199.347656 C 145.011719 199.734375 145.011719 200.023438 144.914062 200.214844 C 144.914062 200.507812 144.914062 200.796875 144.914062 201.183594 C 145.882812 201.28125 146.945312 201.28125 148.300781 201.28125 C 150.8125 201.28125 152.84375 201.183594 154.683594 200.988281 C 157.488281 200.601562 160.386719 199.734375 163.097656 198.667969 C 165.128906 197.796875 166.773438 196.832031 168.320312 195.671875 C 168.804688 195.285156 169.191406 194.898438 169.578125 194.605469 L 169.578125 193.832031 C 169.578125 191.898438 169.480469 190.542969 169.382812 189.191406 C 169.285156 187.933594 169.09375 186.675781 168.804688 185.03125 C 168.511719 183.675781 168.222656 182.324219 167.835938 181.066406 C 167.449219 179.808594 166.867188 178.648438 166.09375 177.585938 C 165.222656 176.328125 164.257812 175.457031 163.191406 174.875 C 162.710938 174.585938 162.128906 174.394531 161.453125 174.296875 C 160.96875 174.296875 160.679688 174.296875 160.386719 174.296875 Z M 160.386719 174.296875 " fill-opacity="1" fill-rule="nonzero"/><path fill="#ffc300" d="M 247.433594 220.140625 C 246.371094 220.140625 245.402344 220.816406 244.53125 221.300781 C 242.210938 222.847656 239.988281 224.296875 237.761719 225.847656 L 236.3125 226.8125 L 236.214844 226.910156 C 233.601562 228.359375 230.894531 229.910156 228.476562 231.261719 L 227.414062 231.84375 C 223.835938 233.777344 220.351562 235.710938 216.871094 237.742188 C 213.871094 239.484375 210.875 241.320312 207.972656 243.0625 L 207.78125 243.160156 L 207.683594 243.253906 L 207.007812 243.738281 C 203.332031 245.964844 199.65625 248.1875 196.078125 250.414062 C 194.722656 251.1875 193.367188 252.054688 192.015625 252.832031 L 191.820312 252.925781 L 191.433594 253.121094 C 190.082031 253.894531 188.53125 254.765625 187.082031 255.730469 C 180.214844 259.890625 174.027344 263.757812 167.546875 267.53125 C 162.613281 270.433594 157.582031 273.429688 152.457031 276.527344 L 151.78125 276.914062 L 149.167969 278.460938 L 148.878906 278.558594 L 148.007812 279.039062 L 147.816406 278.945312 C 145.976562 277.878906 144.140625 276.71875 142.300781 275.65625 C 139.882812 274.203125 137.464844 272.851562 135.046875 271.398438 L 134.46875 271.109375 L 132.050781 269.753906 C 130.019531 268.59375 127.988281 267.335938 125.957031 266.175781 L 124.507812 265.308594 L 123.925781 264.917969 L 121.316406 263.371094 C 118.511719 261.726562 115.707031 259.988281 113.191406 258.34375 L 111.351562 257.183594 C 107.484375 254.765625 103.519531 252.152344 100.039062 249.832031 L 99.554688 249.542969 L 98.972656 249.15625 L 97.714844 248.382812 C 96.84375 247.800781 96.070312 247.21875 95.203125 246.738281 L 94.816406 246.445312 L 94.621094 246.351562 L 94.523438 246.253906 C 93.171875 245.382812 91.527344 244.222656 89.882812 243.253906 L 88.625 242.480469 L 88.238281 242.289062 C 85.722656 240.742188 82.726562 238.902344 79.824219 237.160156 C 79.726562 237.066406 79.628906 237.066406 79.535156 237.066406 C 79.242188 236.773438 78.757812 236.484375 78.371094 236.097656 C 78.082031 235.90625 77.890625 235.710938 77.597656 235.613281 C 76.921875 235.132812 76.148438 234.9375 75.375 234.9375 C 75.085938 234.9375 74.699219 234.9375 74.40625 235.035156 C 73.441406 235.324219 72.667969 235.90625 72.183594 236.773438 C 71.699219 237.550781 71.601562 238.515625 71.796875 239.578125 C 73.054688 245.671875 74.3125 252.441406 75.085938 256.410156 L 75.179688 256.890625 L 75.566406 258.828125 L 75.664062 259.40625 C 76.050781 261.339844 76.4375 263.179688 76.730469 265.113281 C 77.503906 269.273438 78.277344 273.335938 79.050781 277.492188 C 79.339844 278.847656 79.535156 280.199219 79.824219 281.652344 L 79.921875 282.039062 L 80.015625 282.425781 C 80.308594 284.261719 80.695312 286.101562 80.984375 287.9375 C 81.371094 290.066406 81.757812 292.097656 82.144531 294.226562 L 82.242188 294.515625 C 83.207031 299.542969 84.175781 304.476562 85.238281 309.410156 C 85.433594 311.441406 85.820312 313.566406 86.304688 315.984375 C 86.882812 318.695312 87.464844 320.917969 88.335938 323.144531 C 88.429688 323.820312 88.625 324.304688 88.722656 324.882812 C 89.109375 326.042969 89.980469 327.011719 90.847656 327.882812 C 91.527344 328.65625 92.398438 329.332031 93.363281 329.914062 C 94.523438 330.6875 95.683594 331.460938 96.84375 332.234375 L 97.523438 332.71875 L 98.296875 333.203125 L 99.070312 333.78125 C 101.199219 335.234375 103.710938 336.972656 106.226562 338.617188 C 110.871094 341.710938 115.800781 344.613281 119.960938 347.03125 C 124.121094 349.546875 129.050781 352.546875 133.886719 355.640625 C 138.820312 358.832031 143.367188 361.539062 147.621094 363.765625 C 148.105469 364.152344 148.6875 364.441406 149.363281 364.730469 L 149.460938 364.730469 L 149.941406 364.828125 C 150.425781 365.023438 150.910156 365.117188 151.394531 365.117188 C 151.585938 365.117188 151.78125 365.117188 151.972656 365.117188 C 152.457031 365.117188 152.941406 365.023438 153.523438 364.925781 C 154.683594 364.632812 155.648438 364.246094 157.003906 363.472656 C 158.359375 362.992188 159.710938 362.507812 161.355469 361.734375 C 163.191406 360.863281 164.933594 360.089844 166.578125 359.21875 L 167.835938 358.542969 L 168.125 358.347656 C 170.445312 357.089844 173.542969 355.445312 176.445312 353.707031 C 179.441406 351.964844 183.019531 349.835938 187.371094 347.324219 C 188.53125 346.644531 189.597656 345.96875 190.757812 345.292969 C 192.789062 344.128906 194.625 342.96875 196.5625 341.90625 C 198.785156 340.648438 201.007812 339.390625 203.136719 338.230469 C 204.105469 337.652344 205.167969 337.167969 206.230469 336.585938 C 206.714844 336.296875 207.199219 336.101562 207.585938 335.8125 C 211.453125 333.78125 215.226562 331.75 219.09375 329.71875 C 221.511719 328.460938 224.222656 327.011719 227.21875 325.367188 L 229.542969 324.109375 C 232.441406 322.5625 235.632812 320.820312 239.695312 318.886719 L 242.210938 317.628906 C 242.597656 317.4375 242.984375 317.242188 243.371094 317.050781 L 243.46875 316.953125 C 244.144531 316.664062 244.824219 316.277344 245.5 315.984375 C 246.175781 315.695312 246.660156 315.308594 247.238281 314.921875 C 247.53125 314.730469 247.820312 314.535156 248.015625 314.34375 C 248.304688 314.148438 248.691406 313.957031 248.980469 313.761719 L 249.269531 313.566406 C 249.5625 313.375 249.851562 313.179688 250.140625 312.988281 C 250.433594 312.699219 250.722656 312.503906 250.914062 312.3125 C 251.496094 311.925781 251.882812 311.441406 252.171875 310.761719 C 252.65625 309.796875 252.753906 308.730469 252.851562 307.476562 C 252.851562 306.605469 252.851562 305.734375 252.851562 304.863281 L 252.851562 302.15625 C 252.851562 300.800781 252.753906 299.542969 252.753906 298.191406 C 252.753906 296.835938 252.65625 295.480469 252.65625 294.128906 L 252.65625 294.03125 C 252.558594 291.515625 252.558594 289.003906 252.464844 286.390625 C 252.464844 284.359375 252.367188 282.230469 252.367188 280.199219 C 252.367188 279.71875 252.367188 279.136719 252.367188 278.652344 L 252.367188 278.074219 C 252.367188 277.007812 252.269531 275.945312 252.269531 274.882812 L 252.269531 273.335938 C 252.367188 272.269531 252.367188 271.207031 252.460938 270.140625 L 252.65625 266.5625 L 252.851562 263.082031 C 252.945312 261.726562 252.945312 260.375 252.945312 259.019531 C 252.945312 258.34375 252.945312 257.664062 252.945312 256.988281 C 252.945312 253.699219 252.945312 250.800781 252.945312 246.15625 C 252.945312 241.902344 252.945312 237.742188 252.851562 233.488281 C 252.851562 231.746094 252.753906 230.003906 252.65625 228.359375 L 252.65625 227.585938 C 252.65625 227.007812 252.558594 226.328125 252.558594 225.75 C 252.460938 224.683594 252.367188 223.136719 251.59375 221.976562 C 251.207031 221.398438 250.625 220.71875 250.046875 220.429688 C 249.367188 220.042969 248.691406 219.945312 248.015625 219.945312 C 247.53125 220.140625 247.433594 220.140625 247.433594 220.140625 Z M 247.433594 220.140625 " fill-opacity="1" fill-rule="nonzero"/><path fill="#007aff" d="M 214.164062 246.832031 C 213.777344 246.832031 213.390625 246.832031 213.003906 246.929688 C 211.746094 247.027344 210.488281 247.316406 209.132812 247.898438 C 206.910156 248.769531 204.78125 250.21875 202.265625 252.441406 C 199.171875 255.34375 196.464844 258.632812 194.046875 261.726562 L 193.464844 262.5 L 193.367188 262.597656 C 191.335938 265.308594 188.726562 268.59375 186.308594 271.785156 C 183.792969 275.171875 181.28125 278.652344 178.957031 281.75 L 178.863281 281.941406 C 178.378906 282.617188 177.894531 283.296875 177.507812 284.070312 L 177.410156 284.261719 L 177.3125 284.457031 C 177.023438 284.84375 176.832031 285.230469 176.539062 285.617188 C 174.894531 288.132812 173.640625 290.257812 172.574219 292.386719 C 171.800781 293.933594 171.027344 295.675781 170.15625 297.707031 C 169.769531 298.578125 169.578125 299.449219 169.382812 300.222656 C 169.191406 300.703125 169.191406 301.1875 169.191406 301.671875 C 169.191406 302.445312 169.382812 303.121094 169.671875 303.992188 C 170.15625 305.152344 170.832031 306.023438 171.703125 306.605469 C 172.671875 307.28125 173.929688 307.476562 174.894531 307.570312 C 175.089844 307.570312 175.1875 307.570312 175.378906 307.570312 C 176.25 307.570312 177.21875 307.378906 177.894531 307.183594 C 179.054688 306.894531 180.214844 306.410156 180.988281 305.929688 C 181.761719 305.539062 182.535156 304.960938 183.117188 304.574219 L 183.40625 304.378906 C 184.277344 303.800781 185.148438 303.121094 185.921875 302.445312 C 187.664062 300.996094 189.308594 299.351562 190.5625 297.898438 C 190.660156 297.707031 190.855469 297.609375 190.949219 297.417969 L 190.855469 297.511719 C 190.273438 299.835938 189.789062 302.253906 189.5 304.476562 C 189.113281 307.089844 189.210938 309.507812 189.597656 311.632812 C 189.789062 312.503906 190.175781 313.375 190.757812 314.34375 C 191.53125 315.503906 192.402344 316.277344 193.5625 316.761719 C 194.335938 317.050781 195.207031 317.242188 196.367188 317.339844 L 196.5625 317.339844 C 197.914062 317.339844 199.074219 316.953125 200.042969 316.566406 C 200.332031 316.375 200.621094 316.277344 200.914062 316.082031 C 201.492188 315.695312 202.074219 315.308594 202.558594 314.921875 C 203.136719 314.4375 203.621094 313.859375 204.105469 313.277344 L 204.492188 312.890625 C 205.363281 311.925781 206.039062 311.152344 206.714844 310.28125 C 207.488281 309.3125 208.070312 308.441406 208.746094 307.378906 C 208.648438 308.734375 208.746094 310.761719 209.230469 312.699219 C 209.519531 313.664062 210.003906 314.4375 210.585938 315.117188 C 210.875 315.40625 211.261719 315.792969 211.648438 316.082031 C 212.230469 316.566406 212.808594 316.855469 213.292969 317.050781 C 213.679688 317.148438 214.164062 317.242188 214.648438 317.339844 C 215.324219 317.339844 216 317.242188 216.582031 317.148438 L 216.96875 317.050781 L 218.03125 316.664062 C 218.417969 316.46875 218.804688 316.277344 219.289062 315.984375 L 219.578125 315.792969 C 220.351562 315.308594 221.03125 314.824219 221.707031 314.246094 C 222.480469 313.664062 223.15625 312.890625 223.640625 312.214844 L 223.738281 312.117188 C 225.480469 310.183594 226.832031 308.441406 227.992188 306.796875 C 230.023438 303.898438 231.570312 301.480469 232.828125 299.0625 C 232.925781 299.835938 233.121094 300.703125 233.410156 301.769531 C 234.085938 304.378906 235.246094 306.507812 236.699219 308.054688 C 237.375 308.734375 238.246094 309.3125 239.597656 309.699219 C 240.277344 309.894531 240.953125 309.988281 241.726562 309.988281 C 242.210938 309.988281 242.792969 309.988281 243.371094 309.894531 C 243.855469 309.699219 244.339844 309.601562 244.726562 309.410156 C 245.402344 309.121094 245.984375 308.734375 246.464844 308.34375 C 247.433594 307.570312 248.304688 306.703125 249.078125 305.832031 C 250.625 304.089844 251.882812 302.15625 253.238281 299.835938 C 254.011719 298.578125 254.6875 297.125 255.171875 296.160156 L 255.460938 295.480469 C 255.847656 294.707031 256.136719 294.03125 256.523438 293.257812 L 257.203125 291.613281 C 258.363281 289.003906 259.523438 286.292969 260.585938 283.488281 C 261.265625 281.75 261.84375 280.007812 262.519531 278.171875 L 262.8125 277.300781 L 262.910156 277.203125 C 263.296875 276.042969 263.777344 274.589844 264.261719 273.335938 C 264.746094 271.785156 264.164062 270.140625 263.003906 269.273438 C 263.199219 269.273438 263.488281 269.175781 263.683594 269.175781 L 263.972656 269.078125 C 265.421875 268.789062 266.875 268.402344 268.324219 268.113281 C 270.355469 267.628906 271.515625 265.695312 271.128906 263.757812 C 270.742188 262.113281 269.195312 260.859375 267.550781 260.859375 C 267.261719 260.859375 267.066406 260.859375 266.777344 260.953125 C 262.519531 262.019531 259.234375 262.597656 256.136719 262.890625 C 255.269531 262.984375 254.300781 262.984375 253.332031 262.984375 C 252.753906 262.984375 252.171875 262.984375 251.59375 262.984375 C 250.046875 262.890625 248.496094 262.695312 247.238281 262.5 C 243.855469 261.824219 240.953125 260.953125 238.34375 259.792969 C 235.441406 258.246094 232.734375 256.3125 230.121094 254.472656 L 229.058594 253.699219 C 225.574219 251.28125 221.511719 248.574219 217.066406 247.21875 C 216.386719 247.027344 215.613281 246.832031 214.9375 246.738281 C 214.839844 246.832031 214.550781 246.832031 214.164062 246.832031 Z M 214.164062 246.832031 " fill-opacity="1" fill-rule="nonzero"/><path fill="#007aff" d="M 66.671875 240.644531 C 66.378906 240.644531 65.992188 240.644531 65.605469 240.742188 C 64.929688 240.835938 64.347656 241.03125 63.476562 241.222656 C 62.703125 241.417969 61.929688 241.707031 61.15625 242.09375 L 60.964844 242.191406 C 60.191406 242.480469 59.511719 242.964844 58.835938 243.449219 C 58.0625 244.027344 57.386719 244.609375 56.613281 245.285156 C 55.355469 246.445312 54.289062 247.898438 53.226562 249.347656 C 52.257812 250.703125 51.484375 252.152344 50.808594 253.894531 C 49.550781 257.085938 48.875 260.664062 48.972656 264.4375 C 48.972656 266.082031 49.164062 267.917969 49.550781 269.949219 C 49.9375 272.078125 50.90625 274.109375 51.679688 275.847656 C 52.550781 277.878906 53.808594 279.910156 55.355469 282.230469 C 55.355469 284.84375 55.355469 287.550781 55.355469 290.648438 C 55.355469 291.128906 55.355469 291.710938 55.355469 292.195312 L 55.355469 293.160156 C 55.449219 296.546875 55.449219 300.027344 55.835938 303.511719 C 56.222656 307.089844 56.707031 310.28125 58.253906 313.085938 C 58.640625 313.859375 59.417969 314.632812 60.191406 315.117188 C 60.964844 315.597656 61.640625 315.792969 62.703125 315.890625 C 62.898438 315.890625 63.089844 315.890625 63.1875 315.890625 C 63.863281 315.890625 64.542969 315.695312 65.316406 315.40625 C 65.992188 315.117188 66.574219 314.535156 67.058594 314.050781 C 68.121094 312.988281 68.894531 311.730469 69.765625 310.28125 C 70.054688 309.796875 70.34375 309.214844 70.730469 308.636719 C 70.730469 309.023438 70.730469 309.3125 70.828125 309.699219 C 71.023438 311.441406 71.410156 313.179688 71.699219 315.019531 C 72.085938 316.953125 72.570312 318.984375 73.246094 321.210938 C 73.535156 322.175781 73.921875 323.144531 74.503906 324.402344 C 74.792969 324.789062 75.085938 325.269531 75.375 325.65625 C 75.566406 325.949219 75.761719 326.140625 76.050781 326.433594 L 76.148438 326.527344 L 76.632812 327.109375 C 77.117188 327.59375 77.597656 327.882812 78.277344 328.074219 C 78.566406 328.171875 78.953125 328.171875 79.242188 328.171875 C 79.824219 328.171875 80.5 327.980469 81.175781 327.6875 C 81.660156 327.398438 82.144531 327.207031 82.628906 326.722656 C 83.304688 326.140625 83.789062 325.367188 84.078125 324.496094 C 84.175781 324.109375 84.273438 323.722656 84.371094 323.335938 L 84.5625 322.464844 C 84.851562 321.5 85.046875 320.53125 85.238281 319.757812 L 85.335938 319.179688 C 85.917969 316.855469 86.207031 314.632812 86.496094 312.699219 L 86.59375 312.214844 L 86.59375 311.925781 C 87.367188 314.34375 88.238281 316.761719 89.496094 319.660156 C 89.882812 320.53125 90.367188 321.597656 90.65625 321.984375 C 90.847656 322.273438 90.945312 322.5625 91.140625 322.949219 C 91.71875 324.207031 92.492188 325.367188 93.460938 326.527344 C 94.136719 327.300781 95.105469 328.074219 96.265625 328.558594 C 97.425781 329.042969 98.394531 329.238281 99.261719 329.238281 C 99.652344 329.238281 100.132812 329.140625 100.519531 329.042969 C 102.066406 328.65625 103.035156 327.496094 103.710938 326.527344 C 104.484375 325.464844 104.875 324.207031 105.261719 323.046875 L 105.355469 322.851562 C 106.226562 320.339844 106.515625 317.535156 106.710938 315.117188 C 106.808594 313.277344 106.808594 311.539062 106.808594 310.085938 L 106.808594 309.121094 C 106.710938 306.21875 106.710938 303.316406 106.421875 300.414062 C 106.128906 297.03125 105.550781 294.417969 104.777344 292 C 104.390625 290.742188 103.808594 289.390625 103.132812 288.132812 C 102.359375 286.585938 101.003906 285.230469 100.132812 284.359375 C 98.585938 282.8125 96.652344 281.554688 94.039062 280.492188 C 91.914062 279.621094 89.882812 278.945312 87.851562 278.265625 C 87.464844 278.171875 86.980469 277.976562 86.59375 277.878906 C 85.625 277.589844 84.660156 277.300781 83.789062 277.007812 L 79.4375 275.460938 C 78.855469 275.269531 78.371094 274.976562 77.792969 274.785156 L 77.308594 274.589844 L 77.019531 274.496094 C 76.535156 274.300781 76.050781 274.109375 75.566406 273.914062 L 74.699219 273.429688 L 74.601562 273.429688 L 74.40625 273.335938 C 72.957031 272.558594 71.214844 271.691406 69.667969 270.820312 C 69.089844 270.53125 68.507812 270.335938 67.832031 270.335938 C 67.636719 270.335938 67.445312 270.335938 67.152344 270.433594 C 66.1875 269.851562 65.414062 269.273438 64.734375 268.886719 C 63.863281 268.304688 62.703125 267.820312 61.542969 267.628906 L 61.058594 267.53125 L 60.578125 267.433594 C 60.09375 267.433594 59.707031 267.53125 59.125 267.628906 C 58.449219 267.722656 57.867188 268.207031 57.386719 268.691406 C 57.191406 268.886719 56.902344 269.175781 56.707031 269.464844 C 56.515625 268.59375 56.320312 267.820312 56.222656 267.144531 C 56.03125 265.113281 56.03125 263.082031 56.222656 261.148438 C 56.515625 259.40625 56.902344 257.859375 57.480469 256.3125 C 58.0625 255.054688 58.835938 253.894531 59.804688 252.539062 C 60.671875 251.378906 61.640625 250.507812 62.609375 249.636719 C 63.1875 249.25 63.769531 248.863281 64.347656 248.574219 C 65.316406 248.285156 66.28125 247.996094 67.25 247.898438 C 68.21875 247.703125 68.992188 246.929688 69.476562 246.253906 C 69.957031 245.382812 70.054688 244.414062 69.863281 243.449219 C 69.570312 242.578125 68.992188 241.707031 68.21875 241.222656 C 67.832031 240.835938 67.347656 240.644531 66.671875 240.644531 Z M 70.925781 288.324219 C 70.25 287.746094 69.476562 287.164062 68.796875 286.488281 L 68.796875 283.488281 C 68.796875 282.328125 68.21875 281.167969 67.152344 280.492188 C 67.152344 280.105469 67.152344 279.621094 67.152344 279.136719 L 67.445312 279.332031 C 68.410156 280.007812 69.28125 280.589844 70.25 281.167969 L 70.34375 281.265625 L 70.636719 281.457031 C 70.636719 282.039062 70.636719 282.714844 70.636719 283.296875 L 70.636719 283.78125 C 70.636719 284.167969 70.636719 284.457031 70.636719 284.84375 C 70.636719 285.714844 70.828125 286.585938 71.023438 287.648438 C 71.023438 287.746094 71.117188 287.839844 71.117188 287.9375 C 71.117188 288.035156 71.023438 288.132812 70.925781 288.324219 Z M 70.925781 288.324219 " fill-opacity="1" fill-rule="nonzero"/><path fill="#f9a846" d="M 209.519531 257.667969 C 209.132812 258.054688 208.746094 258.441406 208.359375 258.828125 C 208.070312 259.117188 207.78125 259.40625 207.488281 259.695312 C 206.910156 260.375 206.328125 260.953125 205.84375 261.632812 C 205.554688 262.019531 205.167969 262.5 204.878906 262.890625 C 204.589844 263.277344 204.296875 263.664062 204.105469 264.050781 C 203.621094 264.824219 203.136719 265.597656 202.75 266.46875 C 202.558594 266.757812 202.558594 267.046875 202.652344 267.433594 C 202.75 267.726562 202.945312 268.015625 203.234375 268.113281 C 203.8125 268.402344 204.589844 268.304688 204.878906 267.726562 C 205.167969 267.144531 205.554688 266.46875 205.84375 265.886719 C 206.136719 265.402344 206.425781 264.917969 206.8125 264.53125 C 206.714844 264.628906 206.714844 264.726562 206.621094 264.824219 C 207.007812 264.339844 207.394531 263.855469 207.78125 263.371094 C 208.070312 262.984375 208.457031 262.597656 208.746094 262.210938 C 209.519531 261.246094 210.390625 260.375 211.359375 259.503906 C 211.84375 259.019531 211.84375 258.246094 211.359375 257.761719 C 211.164062 257.570312 210.777344 257.375 210.488281 257.375 C 210.101562 257.375 209.8125 257.472656 209.519531 257.667969 Z M 209.519531 257.667969 " fill-opacity="1" fill-rule="nonzero"/><path fill="#f9a846" d="M 212.421875 261.535156 C 211.648438 262.40625 210.875 263.277344 210.199219 264.242188 C 209.90625 264.628906 209.617188 265.015625 209.328125 265.5 C 209.035156 265.984375 208.746094 266.5625 208.457031 267.046875 C 208.167969 267.628906 208.261719 268.402344 208.84375 268.691406 C 209.425781 268.980469 210.199219 268.886719 210.488281 268.304688 C 210.777344 267.726562 211.164062 267.144531 211.453125 266.5625 C 211.746094 266.175781 212.035156 265.789062 212.230469 265.402344 C 212.808594 264.726562 213.390625 263.953125 214.066406 263.277344 C 214.453125 262.792969 214.550781 262.019531 214.066406 261.535156 C 213.871094 261.339844 213.484375 261.148438 213.195312 261.148438 C 212.90625 261.148438 212.617188 261.339844 212.421875 261.535156 Z M 212.421875 261.535156 " fill-opacity="1" fill-rule="nonzero"/><path fill="#f9a846" d="M 219.578125 263.664062 C 219 264.628906 218.417969 265.695312 217.742188 266.660156 C 217.355469 267.335938 216.96875 268.015625 216.675781 268.691406 C 216.386719 269.367188 216.195312 270.046875 216 270.722656 C 215.808594 271.398438 216.195312 272.078125 216.871094 272.171875 C 217.546875 272.269531 218.226562 271.980469 218.320312 271.304688 C 218.515625 270.722656 218.707031 270.046875 218.902344 269.464844 C 219.289062 268.691406 219.773438 267.917969 220.160156 267.144531 C 220.644531 266.371094 221.03125 265.597656 221.511719 264.824219 C 221.804688 264.242188 221.609375 263.46875 221.125 263.179688 C 220.933594 263.082031 220.738281 262.984375 220.546875 262.984375 C 220.257812 263.082031 219.871094 263.277344 219.578125 263.664062 Z M 219.578125 263.664062 " fill-opacity="1" fill-rule="nonzero"/><path fill="#f9a846" d="M 203.71875 274.011719 C 203.234375 275.460938 202.75 276.914062 202.363281 278.363281 C 202.171875 279.039062 202.558594 279.71875 203.234375 279.8125 C 203.910156 280.007812 204.589844 279.621094 204.683594 278.945312 C 205.070312 277.492188 205.554688 276.042969 206.039062 274.589844 C 206.230469 274.011719 205.84375 273.238281 205.167969 273.140625 C 205.070312 273.140625 204.976562 273.140625 204.878906 273.140625 C 204.296875 273.140625 203.910156 273.429688 203.71875 274.011719 Z M 203.71875 274.011719 " fill-opacity="1" fill-rule="nonzero"/><path fill="#f9a846" d="M 212.90625 275.363281 C 212.617188 275.558594 212.421875 275.753906 212.324219 276.042969 C 211.84375 277.394531 211.359375 278.75 210.972656 280.105469 C 210.777344 280.78125 211.164062 281.457031 211.84375 281.554688 C 212.421875 281.75 213.195312 281.363281 213.292969 280.683594 C 213.679688 279.332031 214.164062 277.976562 214.648438 276.621094 C 214.742188 276.332031 214.648438 275.945312 214.550781 275.65625 C 214.355469 275.367188 214.164062 275.171875 213.777344 275.074219 C 213.679688 275.074219 213.582031 275.074219 213.484375 275.074219 C 213.292969 275.171875 213.003906 275.269531 212.90625 275.363281 Z M 212.90625 275.363281 " fill-opacity="1" fill-rule="nonzero"/><path fill="#f9a846" d="M 194.53125 271.304688 C 193.851562 272.078125 193.175781 272.851562 192.5 273.722656 C 192.207031 274.011719 192.015625 274.300781 191.820312 274.589844 C 191.242188 275.363281 190.660156 276.140625 190.273438 276.914062 C 190.082031 277.203125 190.082031 277.492188 190.175781 277.878906 C 190.273438 278.171875 190.46875 278.460938 190.757812 278.558594 C 191.339844 278.847656 192.113281 278.75 192.402344 278.171875 C 192.789062 277.394531 193.175781 276.71875 193.660156 276.140625 C 194.433594 275.074219 195.398438 274.109375 196.171875 273.042969 C 196.367188 272.753906 196.5625 272.558594 196.5625 272.171875 C 196.5625 271.882812 196.464844 271.59375 196.171875 271.304688 C 195.980469 271.109375 195.59375 270.917969 195.304688 270.917969 C 195.109375 271.011719 194.722656 271.109375 194.53125 271.304688 Z M 194.53125 271.304688 " fill-opacity="1" fill-rule="nonzero"/><path fill="#f9a846" d="M 195.496094 282.039062 C 195.207031 282.230469 195.011719 282.425781 194.917969 282.714844 C 194.53125 283.683594 194.144531 284.554688 193.851562 285.519531 C 193.464844 286.390625 193.175781 287.261719 192.980469 288.230469 C 192.886719 288.90625 193.175781 289.582031 193.851562 289.679688 C 194.433594 289.871094 195.207031 289.484375 195.304688 288.808594 C 195.496094 287.9375 195.785156 287.066406 196.078125 286.199219 C 196.464844 285.230469 196.851562 284.261719 197.238281 283.296875 C 197.335938 283.003906 197.238281 282.617188 197.140625 282.328125 C 196.949219 282.039062 196.753906 281.84375 196.367188 281.75 C 196.269531 281.75 196.171875 281.75 196.078125 281.75 C 195.882812 281.84375 195.691406 281.941406 195.496094 282.039062 Z M 195.496094 282.039062 " fill-opacity="1" fill-rule="nonzero"/><path fill="#f9a846" d="M 205.070312 284.457031 C 204.78125 284.554688 204.492188 284.746094 204.394531 285.035156 C 203.910156 286.101562 203.425781 287.164062 203.136719 288.230469 C 202.945312 289.003906 202.75 289.777344 202.652344 290.453125 C 202.558594 290.742188 202.558594 291.035156 202.75 291.421875 C 202.945312 291.710938 203.136719 291.902344 203.425781 292 C 203.71875 292.097656 204.105469 292 204.394531 291.902344 C 204.683594 291.808594 204.878906 291.515625 204.976562 291.128906 C 205.070312 290.742188 205.070312 290.355469 205.167969 290.066406 C 205.363281 289.195312 205.554688 288.421875 205.941406 287.550781 C 206.136719 287.164062 206.328125 286.679688 206.523438 286.292969 C 206.621094 286.003906 206.714844 285.714844 206.621094 285.328125 C 206.523438 285.035156 206.328125 284.746094 206.039062 284.554688 C 205.84375 284.457031 205.652344 284.359375 205.457031 284.359375 C 205.363281 284.359375 205.167969 284.359375 205.070312 284.457031 Z M 205.941406 287.359375 C 205.941406 287.359375 205.941406 287.453125 205.941406 287.453125 C 205.941406 287.453125 205.941406 287.359375 205.941406 287.359375 Z M 205.941406 287.453125 C 205.941406 287.550781 205.941406 287.550781 205.84375 287.648438 C 205.84375 287.550781 205.84375 287.550781 205.941406 287.453125 Z M 205.941406 287.453125 " fill-opacity="1" fill-rule="nonzero"/><path fill="#f9a846" d="M 81.855469 287.648438 C 81.5625 287.839844 81.371094 288.035156 81.273438 288.421875 C 81.175781 288.808594 81.273438 289.003906 81.371094 289.390625 C 81.371094 289.484375 81.46875 289.484375 81.46875 289.582031 C 81.660156 290.164062 81.953125 290.742188 82.144531 291.324219 C 82.339844 292 82.53125 292.582031 82.726562 293.257812 C 82.917969 293.839844 83.59375 294.320312 84.175781 294.128906 C 84.757812 293.933594 85.238281 293.257812 85.046875 292.675781 C 84.851562 292 84.660156 291.324219 84.464844 290.644531 C 84.175781 289.777344 83.886719 289.003906 83.5 288.230469 C 83.402344 287.9375 83.015625 287.746094 82.820312 287.648438 C 82.726562 287.648438 82.628906 287.648438 82.53125 287.648438 C 82.242188 287.453125 82.046875 287.550781 81.855469 287.648438 Z M 81.855469 287.648438 " fill-opacity="1" fill-rule="nonzero"/><path fill="#f9a846" d="M 89.59375 286.972656 C 88.914062 287.164062 88.527344 287.839844 88.722656 288.421875 C 89.109375 289.679688 89.398438 290.9375 89.6875 292.097656 C 89.882812 292.773438 90.558594 293.0625 91.140625 292.96875 C 91.816406 292.773438 92.105469 292.097656 92.011719 291.515625 C 91.71875 290.257812 91.429688 289.003906 91.042969 287.839844 C 90.847656 287.359375 90.367188 286.972656 89.882812 286.972656 C 89.785156 286.875 89.6875 286.875 89.59375 286.972656 Z M 89.59375 286.972656 " fill-opacity="1" fill-rule="nonzero"/><path fill="#f9a846" d="M 97.328125 288.421875 C 97.523438 290.164062 97.621094 292 97.714844 293.742188 C 97.714844 294.417969 98.296875 295 98.972656 295 C 99.652344 295 100.230469 294.417969 100.230469 293.742188 C 100.230469 291.902344 100.039062 290.164062 99.84375 288.421875 C 99.84375 288.132812 99.746094 287.839844 99.457031 287.550781 C 99.261719 287.359375 98.875 287.164062 98.585938 287.164062 C 97.910156 287.261719 97.234375 287.839844 97.328125 288.421875 Z M 97.328125 288.421875 " fill-opacity="1" fill-rule="nonzero"/><path fill="#f9a846" d="M 87.269531 296.351562 C 86.691406 296.546875 86.207031 297.222656 86.398438 297.804688 C 86.496094 298.289062 86.691406 298.769531 86.785156 299.253906 C 86.882812 299.738281 87.078125 300.316406 87.175781 300.800781 C 87.367188 301.480469 88.042969 301.867188 88.625 301.671875 C 89.203125 301.480469 89.6875 300.800781 89.496094 300.222656 C 89.300781 299.738281 89.203125 299.15625 89.109375 298.675781 C 89.011719 298.191406 88.816406 297.707031 88.722656 297.222656 C 88.527344 296.738281 88.042969 296.351562 87.5625 296.351562 C 87.464844 296.257812 87.367188 296.257812 87.269531 296.351562 Z M 87.269531 296.351562 " fill-opacity="1" fill-rule="nonzero"/><path fill="#f9a846" d="M 93.75 298.867188 C 93.75 299.542969 93.75 300.316406 93.75 300.996094 C 93.75 301.671875 94.332031 302.253906 95.007812 302.253906 C 95.683594 302.253906 96.167969 301.671875 96.265625 300.996094 C 96.265625 300.316406 96.265625 299.542969 96.265625 298.867188 C 96.265625 298.191406 95.683594 297.609375 95.007812 297.609375 C 94.332031 297.609375 93.75 298.191406 93.75 298.867188 Z M 93.75 298.867188 " fill-opacity="1" fill-rule="nonzero"/><path fill="#f9a846" d="M 83.113281 279.136719 C 82.820312 279.332031 82.628906 279.523438 82.53125 279.8125 C 82.433594 280.105469 82.53125 280.492188 82.628906 280.78125 C 83.015625 281.652344 83.5 282.523438 83.980469 283.394531 C 84.273438 283.972656 85.046875 284.167969 85.625 283.78125 C 86.207031 283.394531 86.398438 282.714844 86.011719 282.136719 C 85.53125 281.265625 85.144531 280.394531 84.660156 279.523438 C 84.464844 279.136719 84.078125 278.945312 83.59375 278.945312 C 83.5 278.945312 83.304688 279.039062 83.113281 279.136719 Z M 83.113281 279.136719 " fill-opacity="1" fill-rule="nonzero"/><path fill="#f9a846" d="M 153.425781 79.707031 C 153.328125 81.640625 153.328125 83.480469 153.230469 85.414062 C 153.230469 86.089844 153.8125 86.671875 154.488281 86.671875 C 155.164062 86.671875 155.648438 86.089844 155.746094 85.414062 C 155.84375 83.480469 155.84375 81.640625 155.941406 79.707031 C 155.941406 79.03125 155.359375 78.449219 154.683594 78.449219 C 153.910156 78.449219 153.425781 79.03125 153.425781 79.707031 Z M 153.425781 79.707031 " fill-opacity="1" fill-rule="nonzero"/><path fill="#f9a846" d="M 163.191406 77.675781 C 162.902344 77.773438 162.710938 78.0625 162.613281 78.351562 C 162.515625 79.320312 162.324219 80.191406 162.226562 81.15625 C 162.226562 81.253906 162.226562 81.351562 162.226562 81.449219 C 162.226562 81.738281 162.128906 82.125 162.128906 82.414062 C 162.128906 82.414062 162.128906 82.511719 162.128906 82.511719 C 162.128906 82.609375 162.128906 82.707031 162.128906 82.800781 C 162.03125 83.1875 162.03125 83.671875 162.03125 84.15625 C 161.9375 84.832031 162.613281 85.414062 163.289062 85.414062 C 163.582031 85.414062 163.871094 85.316406 164.160156 85.027344 C 164.449219 84.738281 164.449219 84.542969 164.546875 84.15625 C 164.546875 83.769531 164.644531 83.382812 164.644531 82.996094 C 164.644531 82.898438 164.644531 82.800781 164.644531 82.707031 C 164.644531 82.511719 164.644531 82.414062 164.742188 82.222656 C 164.742188 82.027344 164.835938 81.835938 164.835938 81.640625 C 164.835938 81.449219 164.933594 81.253906 164.933594 81.0625 C 165.03125 80.382812 165.128906 79.804688 165.222656 79.125 C 165.320312 78.738281 165.320312 78.546875 165.128906 78.160156 C 164.933594 77.871094 164.742188 77.675781 164.449219 77.578125 C 164.355469 77.578125 164.257812 77.578125 164.160156 77.578125 C 163.582031 77.484375 163.386719 77.578125 163.191406 77.675781 Z M 164.449219 82.996094 Z M 164.449219 82.996094 " fill-opacity="1" fill-rule="nonzero"/><path fill="#f9a846" d="M 170.15625 77.675781 C 169.769531 79.417969 169.480469 81.15625 169.285156 82.898438 C 169.285156 83.1875 169.480469 83.574219 169.671875 83.769531 C 169.867188 83.960938 170.253906 84.15625 170.542969 84.15625 C 170.832031 84.15625 171.222656 84.058594 171.414062 83.769531 C 171.703125 83.480469 171.703125 83.285156 171.800781 82.898438 C 171.800781 82.707031 171.800781 82.511719 171.898438 82.320312 C 172.089844 80.964844 172.382812 79.707031 172.671875 78.351562 C 172.769531 77.675781 172.476562 77 171.800781 76.902344 C 171.703125 76.902344 171.609375 76.902344 171.511719 76.902344 C 170.738281 76.804688 170.253906 77.097656 170.15625 77.675781 Z M 170.15625 77.675781 " fill-opacity="1" fill-rule="nonzero"/><path fill="#f9a846" d="M 158.066406 89.476562 C 157.777344 89.574219 157.488281 89.765625 157.292969 90.054688 C 157.101562 90.347656 157.101562 90.636719 157.195312 91.023438 C 157.292969 91.699219 157.488281 92.378906 157.582031 93.152344 C 157.679688 93.925781 157.777344 94.699219 157.96875 95.472656 C 158.164062 96.148438 158.839844 96.535156 159.421875 96.34375 C 160.097656 96.148438 160.386719 95.472656 160.292969 94.890625 C 160.097656 94.117188 160 93.441406 159.90625 92.667969 C 159.808594 91.894531 159.613281 91.214844 159.519531 90.441406 C 159.421875 89.863281 158.839844 89.574219 158.359375 89.574219 C 158.359375 89.476562 158.164062 89.476562 158.066406 89.476562 Z M 158.066406 89.476562 " fill-opacity="1" fill-rule="nonzero"/><path fill="#f9a846" d="M 165.707031 90.441406 C 165.609375 92.28125 165.515625 94.214844 165.609375 96.050781 C 165.609375 96.730469 166.191406 97.308594 166.867188 97.308594 C 167.546875 97.308594 168.125 96.730469 168.125 96.050781 C 168.125 94.214844 168.222656 92.28125 168.222656 90.441406 C 168.222656 89.765625 167.640625 89.183594 166.964844 89.183594 C 166.191406 89.183594 165.707031 89.765625 165.707031 90.441406 Z M 165.707031 90.441406 " fill-opacity="1" fill-rule="nonzero"/><path fill="#f9a846" d="M 161.839844 102.726562 C 161.839844 103.5 161.839844 104.273438 161.839844 104.949219 C 161.9375 105.820312 161.9375 106.691406 162.128906 107.5625 C 162.128906 107.851562 162.417969 108.140625 162.710938 108.335938 C 163 108.527344 163.289062 108.527344 163.675781 108.433594 C 163.96875 108.335938 164.257812 108.140625 164.355469 107.851562 C 164.546875 107.5625 164.546875 107.273438 164.449219 106.882812 C 164.449219 106.882812 164.449219 106.882812 164.449219 106.789062 C 164.257812 105.433594 164.257812 104.078125 164.257812 102.628906 C 164.257812 101.953125 163.675781 101.371094 163 101.371094 C 162.417969 101.46875 161.839844 102.046875 161.839844 102.726562 Z M 164.355469 106.59375 C 164.355469 106.691406 164.355469 106.789062 164.355469 106.789062 C 164.449219 106.691406 164.449219 106.691406 164.355469 106.59375 Z M 164.355469 106.59375 " fill-opacity="1" fill-rule="nonzero"/><path fill="#f9a846" d="M 133.113281 240.742188 C 133.113281 241.515625 133.113281 242.386719 133.113281 243.160156 C 133.113281 243.738281 133.210938 244.222656 133.210938 244.800781 C 133.308594 245.191406 133.308594 245.578125 133.40625 245.964844 C 133.5 246.351562 133.695312 246.738281 133.886719 247.125 C 134.179688 247.703125 134.953125 247.898438 135.53125 247.511719 C 136.113281 247.125 136.304688 246.445312 135.917969 245.867188 C 135.824219 245.769531 135.824219 245.671875 135.726562 245.578125 C 135.628906 245.285156 135.53125 244.898438 135.4375 244.609375 C 135.339844 243.351562 135.339844 242.09375 135.339844 240.742188 C 135.339844 240.0625 134.757812 239.484375 134.082031 239.484375 C 133.597656 239.578125 133.113281 240.160156 133.113281 240.742188 Z M 135.628906 244.707031 C 135.628906 244.707031 135.628906 244.804688 135.628906 244.804688 C 135.628906 244.800781 135.628906 244.707031 135.628906 244.707031 Z M 135.628906 244.707031 " fill-opacity="1" fill-rule="nonzero"/><path fill="#f9a846" d="M 140.660156 240.0625 C 140.660156 241.128906 140.753906 242.191406 140.753906 243.160156 C 140.753906 243.546875 140.753906 244.027344 140.753906 244.414062 C 140.753906 245.382812 140.949219 246.351562 141.238281 247.316406 C 141.433594 247.996094 142.109375 248.382812 142.6875 248.1875 C 143.367188 247.996094 143.753906 247.316406 143.558594 246.738281 C 143.464844 246.253906 143.269531 245.769531 143.171875 245.285156 C 143.078125 244.511719 143.078125 243.835938 143.078125 243.0625 C 143.078125 242.09375 142.980469 241.03125 142.980469 240.0625 C 142.980469 239.386719 142.398438 238.804688 141.722656 238.804688 C 141.238281 238.902344 140.660156 239.386719 140.660156 240.0625 Z M 143.269531 245.09375 C 143.269531 245.09375 143.269531 245.191406 143.269531 245.191406 C 143.269531 245.191406 143.269531 245.191406 143.269531 245.09375 Z M 143.269531 245.09375 " fill-opacity="1" fill-rule="nonzero"/><path fill="#f9a846" d="M 150.8125 239.773438 C 150.71875 241.804688 150.71875 243.933594 150.621094 245.964844 C 150.621094 246.640625 151.199219 247.21875 151.878906 247.21875 C 152.554688 247.21875 153.039062 246.640625 153.136719 245.964844 C 153.136719 243.933594 153.230469 241.804688 153.328125 239.773438 C 153.328125 239.097656 152.746094 238.515625 152.070312 238.515625 C 151.394531 238.515625 150.910156 239.097656 150.8125 239.773438 Z M 150.8125 239.773438 " fill-opacity="1" fill-rule="nonzero"/><path fill="#f9a846" d="M 137.5625 254.667969 C 137.273438 254.765625 136.984375 254.957031 136.886719 255.25 C 136.691406 255.539062 136.691406 255.828125 136.789062 256.214844 C 136.984375 257.570312 137.175781 258.921875 137.464844 260.179688 C 137.660156 260.859375 138.335938 261.246094 138.917969 261.050781 C 139.59375 260.859375 139.980469 260.179688 139.789062 259.601562 C 139.402344 258.34375 139.304688 256.988281 139.109375 255.636719 C 139.109375 255.34375 138.820312 255.054688 138.53125 254.957031 C 138.335938 254.859375 138.144531 254.765625 137.949219 254.765625 C 137.757812 254.570312 137.660156 254.570312 137.5625 254.667969 Z M 137.5625 254.667969 " fill-opacity="1" fill-rule="nonzero"/><path fill="#f9a846" d="M 145.6875 253.894531 C 145.496094 254.085938 145.300781 254.472656 145.300781 254.765625 C 145.398438 256.023438 145.496094 257.277344 145.589844 258.632812 C 145.589844 259.308594 146.074219 259.890625 146.847656 259.890625 C 147.523438 259.890625 148.105469 259.308594 148.105469 258.632812 C 148.007812 257.375 147.910156 256.117188 147.816406 254.765625 C 147.816406 254.472656 147.71875 254.183594 147.429688 253.894531 C 147.234375 253.699219 146.847656 253.507812 146.558594 253.507812 C 146.171875 253.507812 145.882812 253.699219 145.6875 253.894531 Z M 145.6875 253.894531 " fill-opacity="1" fill-rule="nonzero"/><path fill="#f9a846" d="M 142.398438 266.660156 C 142.109375 266.757812 141.820312 266.949219 141.625 267.242188 C 141.433594 267.53125 141.433594 267.820312 141.527344 268.207031 C 141.625 268.980469 141.722656 269.660156 141.914062 270.433594 C 142.109375 271.691406 142.207031 272.851562 142.496094 274.109375 C 142.59375 274.785156 143.367188 275.074219 143.945312 274.976562 C 144.238281 274.882812 144.527344 274.6875 144.625 274.398438 C 144.816406 274.109375 144.816406 273.816406 144.71875 273.429688 C 144.625 272.949219 144.527344 272.464844 144.429688 272.078125 C 144.238281 270.625 144.042969 269.078125 143.753906 267.628906 C 143.753906 267.335938 143.464844 267.046875 143.171875 266.855469 C 142.980469 266.757812 142.785156 266.660156 142.59375 266.660156 C 142.59375 266.660156 142.496094 266.660156 142.398438 266.660156 Z M 141.914062 270.140625 C 141.914062 270.238281 141.914062 270.335938 141.914062 270.335938 C 141.914062 270.335938 141.914062 270.238281 141.914062 270.140625 Z M 144.527344 272.078125 C 144.527344 272.171875 144.527344 272.269531 144.527344 272.367188 C 144.527344 272.269531 144.527344 272.171875 144.527344 272.078125 Z M 144.527344 272.078125 " fill-opacity="1" fill-rule="nonzero"/><path fill="#000000" d="M 273.160156 238.128906 C 271.710938 238.613281 271.128906 240.160156 271.613281 241.515625 C 271.804688 242.191406 272.097656 242.964844 272.289062 243.640625 C 272.386719 244.320312 272.484375 244.898438 272.484375 245.578125 C 272.386719 246.253906 272.289062 246.832031 272.097656 247.511719 C 271.804688 248.285156 271.417969 249.058594 270.9375 249.832031 C 270.355469 250.703125 269.679688 251.476562 268.90625 252.152344 C 267.550781 253.3125 266.195312 254.28125 264.648438 255.054688 C 261.457031 256.601562 257.976562 257.570312 254.492188 258.34375 C 253.042969 258.632812 251.6875 258.921875 250.238281 259.117188 C 248.789062 259.308594 247.722656 260.472656 247.820312 262.019531 C 247.917969 263.371094 249.269531 264.628906 250.722656 264.4375 C 252.65625 264.242188 254.492188 263.855469 256.332031 263.371094 C 258.265625 262.890625 260.105469 262.5 262.039062 261.921875 C 266.777344 260.472656 271.324219 257.957031 274.515625 254.085938 C 275.382812 253.023438 276.0625 251.863281 276.640625 250.703125 C 277.222656 249.542969 277.609375 248.285156 277.800781 247.027344 C 278.285156 244.511719 277.609375 241.996094 276.835938 239.578125 C 276.449219 238.515625 275.382812 237.839844 274.320312 237.839844 C 273.742188 238.03125 273.449219 238.03125 273.160156 238.128906 Z M 273.160156 238.128906 " fill-opacity="1" fill-rule="nonzero"/><path fill="#000000" d="M 274.996094 281.75 C 274.320312 282.039062 273.835938 282.523438 273.546875 283.101562 C 273.257812 283.78125 273.257812 284.359375 273.449219 284.941406 C 273.546875 285.714844 273.644531 286.390625 273.644531 287.164062 C 273.742188 288.035156 273.742188 288.90625 273.742188 289.777344 C 273.644531 290.9375 273.546875 292.097656 273.257812 293.160156 C 273.0625 293.742188 272.773438 294.320312 272.484375 294.804688 C 272.386719 295 272.191406 295.191406 272.097656 295.386719 C 272 295.480469 271.902344 295.578125 271.710938 295.675781 C 271.710938 295.675781 271.613281 295.675781 271.613281 295.773438 C 271.613281 295.773438 271.515625 295.773438 271.515625 295.773438 C 271.324219 295.773438 271.226562 295.773438 271.03125 295.675781 C 270.839844 295.578125 270.550781 295.480469 270.355469 295.386719 C 269.96875 295.09375 269.679688 294.902344 269.292969 294.515625 C 268.421875 293.546875 267.742188 292.484375 267.066406 291.324219 C 266.875 291.035156 266.679688 290.648438 266.488281 290.355469 C 266.292969 290.066406 266.195312 289.777344 266.101562 289.484375 C 266.003906 289.292969 265.90625 289.097656 265.808594 288.90625 C 265.519531 288.421875 265.328125 288.132812 264.9375 287.746094 C 264.261719 287.066406 263.101562 287.066406 262.328125 287.359375 C 261.554688 287.648438 260.683594 288.519531 260.683594 289.390625 C 260.585938 290.742188 260.78125 292.097656 260.78125 293.453125 C 260.683594 295.675781 260.585938 297.898438 260.007812 300.027344 C 259.8125 300.703125 259.523438 301.382812 259.234375 302.058594 C 259.039062 302.347656 258.847656 302.542969 258.652344 302.832031 C 258.554688 302.929688 258.554688 302.929688 258.460938 303.027344 C 258.460938 303.027344 258.363281 303.027344 258.363281 303.027344 C 258.265625 303.027344 258.167969 303.027344 257.976562 303.027344 C 257.878906 303.027344 257.78125 303.027344 257.78125 303.027344 C 257.589844 302.929688 257.492188 302.929688 257.296875 302.832031 C 257.203125 302.734375 257.105469 302.640625 257.007812 302.640625 C 256.910156 302.542969 256.816406 302.347656 256.71875 302.253906 C 256.523438 301.867188 256.429688 301.480469 256.332031 301.09375 C 256.234375 300.414062 256.042969 299.738281 255.945312 299.0625 C 255.847656 298.191406 255.75 297.222656 255.363281 296.546875 C 255.171875 296.160156 254.878906 295.773438 254.589844 295.480469 C 254.203125 295.191406 253.816406 295 253.332031 294.902344 C 252.269531 294.707031 250.914062 295.386719 250.527344 296.449219 C 250.238281 297.320312 249.949219 298.191406 249.65625 299.0625 C 249.367188 299.929688 248.980469 300.800781 248.59375 301.574219 C 247.820312 303.316406 247.046875 305.058594 246.273438 306.796875 C 245.597656 308.054688 246.371094 309.699219 247.628906 310.28125 C 248.980469 310.859375 250.527344 310.183594 251.109375 308.925781 C 251.6875 307.863281 252.171875 306.703125 252.65625 305.636719 C 252.945312 305.929688 253.140625 306.316406 253.429688 306.507812 C 254.878906 307.957031 257.007812 308.636719 259.039062 308.34375 C 260.007812 308.25 260.878906 307.765625 261.652344 307.28125 C 262.039062 307.089844 262.425781 306.605469 262.714844 306.316406 C 263.101562 305.929688 263.390625 305.539062 263.683594 305.058594 C 264.84375 303.316406 265.421875 301.382812 265.714844 299.351562 C 265.808594 299.0625 265.808594 298.675781 265.90625 298.382812 C 266.777344 299.253906 267.839844 299.929688 269 300.511719 C 269.96875 300.898438 271.03125 301.09375 272.097656 301.09375 C 272.578125 301.09375 273.160156 300.996094 273.546875 300.800781 C 274.128906 300.609375 274.609375 300.316406 275.191406 299.929688 C 275.964844 299.449219 276.546875 298.675781 277.027344 297.996094 C 277.609375 297.03125 278.09375 296.0625 278.480469 295 C 278.769531 294.03125 278.964844 293.0625 279.15625 292.097656 C 279.351562 290.9375 279.351562 289.777344 279.253906 288.710938 C 279.253906 287.9375 279.15625 287.066406 279.15625 286.292969 C 279.15625 286.003906 279.058594 285.714844 279.058594 285.328125 C 278.964844 284.648438 278.867188 283.972656 278.671875 283.199219 C 278.480469 282.617188 277.800781 282.039062 277.320312 281.75 C 276.933594 281.554688 276.640625 281.554688 276.253906 281.554688 C 275.675781 281.554688 275.386719 281.652344 274.996094 281.75 Z M 272.191406 295.675781 C 272.191406 295.675781 272.097656 295.675781 272.097656 295.675781 C 272.097656 295.675781 272.097656 295.675781 272.191406 295.675781 Z M 272.191406 295.675781 " fill-opacity="1" fill-rule="nonzero"/><path fill="#000000" d="M 57.09375 250.894531 C 56.515625 251.378906 56.222656 251.960938 56.03125 252.636719 C 55.933594 253.121094 55.742188 253.605469 55.644531 254.085938 C 55.449219 254.859375 55.546875 255.828125 55.644531 256.601562 C 55.835938 258.246094 56.707031 259.695312 57.578125 261.050781 C 58.933594 263.179688 60.671875 264.917969 62.511719 266.660156 C 64.058594 268.113281 65.703125 269.367188 67.25 270.722656 C 68.3125 271.691406 70.152344 271.398438 71.023438 270.335938 C 71.988281 269.175781 71.699219 267.53125 70.636719 266.5625 C 68.699219 264.824219 66.671875 263.277344 64.734375 261.4375 C 63.574219 260.179688 62.511719 258.921875 61.640625 257.472656 C 61.351562 256.988281 61.15625 256.503906 60.964844 256.023438 C 60.964844 255.730469 60.867188 255.441406 60.867188 255.152344 C 60.964844 254.570312 61.058594 253.992188 61.253906 253.410156 C 61.449219 252.734375 61.15625 251.960938 60.769531 251.378906 C 60.382812 250.800781 59.707031 250.414062 59.03125 250.316406 C 58.933594 250.316406 58.738281 250.316406 58.640625 250.316406 C 58.160156 250.414062 57.578125 250.605469 57.09375 250.894531 Z M 57.09375 250.894531 " fill-opacity="1" fill-rule="nonzero"/><path fill="#000000" d="M 145.976562 284.746094 C 146.074219 288.421875 146.269531 292 146.363281 295.675781 C 147.234375 317.726562 148.105469 339.683594 148.878906 361.734375 C 148.878906 361.734375 148.878906 361.734375 148.878906 361.828125 C 148.976562 363.28125 150.039062 364.539062 151.585938 364.539062 C 153.039062 364.539062 154.296875 363.28125 154.296875 361.828125 C 153.8125 349.449219 153.328125 337.070312 152.84375 324.691406 C 152.652344 319.371094 152.457031 314.148438 152.265625 308.828125 C 152.265625 308.054688 152.167969 307.183594 152.167969 306.410156 C 152.070312 302.832031 151.878906 299.253906 151.78125 295.675781 C 151.683594 292 151.492188 288.421875 151.394531 284.746094 C 151.296875 283.296875 150.234375 282.039062 148.6875 282.039062 C 147.234375 282.039062 145.976562 283.296875 145.976562 284.746094 Z M 145.976562 284.746094 " fill-opacity="1" fill-rule="nonzero"/><path fill="#f9a846" d="M 89.785156 303.027344 C 89.6875 303.027344 89.59375 303.027344 89.496094 303.027344 C 88.238281 303.121094 87.269531 303.511719 86.207031 303.992188 C 85.433594 304.378906 84.660156 305.152344 84.078125 305.832031 C 83.5 306.507812 83.015625 307.183594 82.53125 308.152344 C 80.886719 311.246094 80.308594 314.921875 79.921875 318.015625 C 79.921875 317.921875 79.824219 317.824219 79.824219 317.628906 C 79.050781 316.082031 78.179688 314.535156 77.117188 312.890625 C 76.535156 311.925781 75.761719 311.054688 75.277344 310.375 L 75.179688 310.28125 C 74.601562 309.507812 73.921875 308.734375 73.246094 308.054688 C 71.894531 306.894531 70.25 306.21875 68.507812 306.21875 C 68.023438 306.21875 67.445312 306.316406 66.960938 306.410156 C 65.027344 306.894531 63.476562 308.539062 62.703125 310.859375 C 61.449219 314.535156 62.027344 318.695312 62.703125 322.273438 C 63.574219 326.238281 65.316406 330.203125 66.863281 333.492188 C 68.3125 336.585938 70.34375 339.683594 73.246094 343.261719 C 74.40625 344.710938 75.664062 345.96875 77.019531 346.9375 C 77.792969 347.515625 78.46875 348 79.535156 348.386719 C 80.015625 350.804688 80.695312 353.027344 81.371094 355.058594 C 81.855469 356.511719 82.53125 357.960938 83.207031 359.414062 L 83.304688 359.605469 L 83.5 360.089844 C 83.886719 360.765625 84.371094 361.347656 84.757812 361.925781 C 85.625 362.992188 87.269531 363.472656 88.429688 363.472656 C 89.59375 363.472656 90.460938 363.28125 91.527344 362.796875 C 92.976562 362.121094 94.332031 360.476562 94.621094 358.929688 C 94.910156 357.863281 95.007812 356.800781 95.105469 355.738281 C 95.203125 355.253906 95.203125 354.867188 95.203125 354.480469 C 95.296875 353.414062 95.394531 352.253906 95.394531 351.191406 L 95.394531 351.09375 C 95.394531 350.707031 95.394531 350.320312 95.394531 349.933594 C 95.394531 348.191406 95.394531 346.355469 95.296875 344.226562 C 95.105469 341.324219 94.71875 338.90625 94.039062 336.683594 L 94.039062 336.585938 L 94.136719 336.394531 C 94.816406 334.652344 95.394531 332.816406 95.78125 331.265625 C 96.75 327.6875 97.328125 323.625 97.714844 318.886719 C 97.8125 316.761719 97.910156 315.019531 97.8125 313.472656 C 97.621094 309.410156 95.976562 304.765625 92.011719 303.605469 C 91.332031 303.121094 90.558594 303.027344 89.785156 303.027344 Z M 89.785156 303.027344 " fill-opacity="1" fill-rule="nonzero"/><g clip-path="url(#1b662a1164)"><path fill="#f9a846" d="M 227.125 302.929688 C 225.769531 302.929688 224.511719 303.511719 223.351562 303.992188 C 222.09375 304.574219 221.03125 305.734375 220.449219 306.507812 C 219.964844 307.089844 219.578125 307.667969 219.191406 308.34375 C 218.707031 309.023438 218.417969 309.894531 218.128906 310.667969 L 217.933594 311.054688 C 216.773438 313.859375 216 317.050781 215.324219 320.917969 C 215.128906 322.078125 214.9375 323.238281 214.839844 324.402344 C 214.257812 323.238281 213.582031 322.078125 212.90625 320.917969 C 210.003906 316.179688 207.101562 313.179688 203.8125 311.34375 C 202.945312 310.859375 201.976562 310.472656 200.816406 310.183594 C 200.234375 309.988281 199.367188 309.894531 198.589844 309.894531 C 197.816406 309.894531 197.238281 309.988281 196.753906 310.183594 C 196.171875 310.375 195.59375 310.570312 194.917969 310.859375 C 194.433594 311.246094 193.851562 311.632812 193.367188 312.019531 C 192.980469 312.503906 192.59375 313.085938 192.113281 313.570312 C 191.820312 313.957031 191.628906 314.34375 191.53125 314.730469 C 191.144531 315.597656 190.855469 316.46875 190.5625 317.339844 C 190.175781 318.5 190.175781 319.855469 190.082031 321.113281 C 189.984375 323.433594 190.46875 325.753906 190.949219 327.496094 C 191.53125 329.816406 192.5 332.042969 193.367188 333.878906 C 194.53125 336.394531 195.980469 338.8125 197.042969 340.648438 C 198.976562 343.839844 201.492188 347.128906 204.683594 350.609375 C 205.070312 350.996094 205.457031 351.382812 205.84375 351.773438 L 206.523438 352.449219 C 207.683594 353.609375 208.941406 354.671875 209.90625 355.445312 C 210.488281 355.929688 211.066406 356.414062 211.648438 356.703125 C 212.035156 356.898438 212.519531 357.089844 212.90625 357.1875 L 213.003906 357.1875 C 213.003906 358.542969 213.195312 359.800781 213.390625 361.25 C 213.484375 362.023438 213.96875 362.992188 214.257812 363.667969 L 214.355469 363.765625 C 214.648438 364.441406 215.128906 365.023438 215.613281 365.503906 C 216.484375 366.472656 217.933594 367.054688 219.289062 367.054688 C 219.773438 367.054688 220.257812 366.957031 220.644531 366.859375 C 221.707031 366.472656 222.480469 366.085938 223.253906 365.410156 C 223.738281 364.925781 224.222656 364.34375 224.609375 363.472656 C 224.996094 362.605469 225.1875 361.828125 225.480469 360.765625 C 225.769531 359.316406 225.960938 358.15625 226.058594 357.089844 C 226.347656 354.769531 226.445312 352.351562 226.445312 350.128906 L 226.445312 349.933594 C 226.445312 348.578125 226.445312 347.515625 226.445312 346.453125 C 226.445312 346.355469 226.445312 346.257812 226.445312 346.257812 C 226.734375 345.871094 227.125 345.386719 227.414062 344.808594 C 227.800781 343.9375 228.089844 343.261719 228.1875 342.390625 L 228.1875 342.003906 C 228.476562 341.421875 228.671875 340.746094 228.960938 340.164062 C 232.152344 332.234375 235.152344 323.722656 234.859375 314.824219 C 234.765625 313.179688 234.570312 311.34375 234.183594 309.601562 C 233.894531 308.25 233.410156 306.992188 232.734375 306.023438 C 232.25 305.25 231.667969 304.574219 230.894531 304.1875 C 230.121094 303.605469 229.347656 303.316406 228.476562 303.027344 C 228.089844 303.027344 227.605469 302.929688 227.125 302.929688 Z M 227.125 302.929688 " fill-opacity="1" fill-rule="nonzero"/></g></svg>