<?xml version="1.0" standalone="no"?>
<!DOCTYPE svg PUBLIC "-//W3C//DTD SVG 20010904//EN"
 "http://www.w3.org/TR/2001/REC-SVG-20010904/DTD/svg10.dtd">
<svg version="1.0" xmlns="http://www.w3.org/2000/svg"
 width="500.000000pt" height="500.000000pt" viewBox="0 0 500.000000 500.000000"
 preserveAspectRatio="xMidYMid meet">

<g transform="translate(0.000000,500.000000) scale(0.100000,-0.100000)"
fill="#000000" stroke="none">
<path d="M2373 4868 c-11 -13 -49 -63 -84 -113 -144 -202 -318 -355 -579 -508
-180 -105 -282 -181 -422 -311 -80 -75 -170 -168 -201 -208 -60 -79 -129 -189
-123 -196 2 -2 30 17 62 43 63 52 172 105 254 125 36 9 90 11 164 7 195 -10
343 -73 462 -199 119 -127 215 -293 254 -441 10 -40 19 -62 19 -50 2 70 115
312 189 402 97 119 221 213 333 252 138 47 397 35 534 -26 165 -73 324 -242
421 -449 18 -39 33 -68 34 -64 0 15 -61 199 -86 255 -63 143 -217 337 -358
452 -190 154 -323 234 -516 311 -58 23 -107 43 -108 45 -2 2 12 25 31 50 53
68 81 132 81 185 2 89 -44 102 -163 45 -40 -19 -74 -35 -76 -35 -2 0 12 30 31
66 39 75 44 118 14 134 -16 8 -37 1 -115 -39 -53 -28 -92 -45 -88 -38 4 7 22
33 40 58 48 67 75 135 76 190 1 75 -38 103 -80 57z m-73 -921 c0 -38 -12 -67
-26 -67 -17 0 -19 71 -2 88 15 15 28 6 28 -21z m-102 -29 c-2 -41 -7 -54 -20
-56 -15 -3 -18 4 -18 36 0 50 8 72 27 72 11 0 13 -12 11 -52z m-120 -24 c-2
-36 -7 -49 -18 -49 -19 0 -26 80 -9 101 19 23 31 2 27 -52z m55 -128 c9 -36
-3 -69 -19 -54 -9 10 -23 81 -17 90 10 18 28 0 36 -36z m105 -8 c-4 -74 -28
-77 -28 -4 0 44 3 56 16 56 12 0 14 -10 12 -52z m-50 -162 c2 -36 0 -47 -10
-44 -8 3 -14 24 -16 52 -2 36 0 47 10 44 8 -3 14 -24 16 -52z"/>
<path d="M2555 2914 c-47 -24 -84 -64 -113 -124 -23 -46 -27 -70 -30 -155 -2
-89 0 -105 21 -145 56 -107 189 -138 277 -63 77 65 121 237 88 347 -17 55 -91
131 -143 145 -53 14 -64 14 -100 -5z"/>
<path d="M1560 2888 c-104 -54 -151 -271 -85 -397 37 -72 142 -103 209 -61 71
43 112 157 104 284 -5 84 -26 125 -78 160 -54 36 -97 40 -150 14z"/>
<path d="M3738 2730 c-7 -161 -21 -227 -74 -339 -49 -104 -108 -184 -211 -281
l-88 -85 8 -224 c5 -123 6 -229 3 -236 -2 -7 -18 -15 -34 -18 -18 -4 -33 -14
-37 -27 -3 -11 -12 -20 -19 -20 -35 0 -120 40 -199 92 -85 57 -200 118 -223
118 -6 0 -33 -7 -62 -15 -73 -22 -137 -86 -289 -287 -177 -235 -253 -365 -253
-433 0 -30 40 -75 67 -75 44 0 94 24 155 74 l66 55 -9 -32 c-12 -42 -11 -158
1 -177 9 -13 12 -13 21 3 13 22 61 47 91 47 13 0 36 -7 53 -16 29 -15 30 -15
57 18 l27 33 1 -41 c0 -31 7 -48 26 -68 41 -40 57 -34 79 29 10 31 33 72 50
92 26 31 37 36 75 37 38 1 48 6 64 30 l19 28 19 -51 c27 -70 60 -95 120 -88
26 4 50 2 53 -4 12 -18 45 -8 59 19 15 26 15 26 16 4 0 -48 -15 -61 -165 -142
-33 -18 -63 -36 -68 -39 -7 -7 -39 -122 -35 -126 2 -2 44 23 93 55 133 85 286
160 327 160 44 0 58 -15 58 -63 0 -34 -8 -47 -62 -104 -70 -73 -66 -74 57 -19
183 82 282 152 445 315 199 200 336 425 433 711 38 113 42 152 18 181 l-19 24
-25 -23 -24 -23 -7 43 c-14 84 -61 100 -125 43 -21 -19 -41 -35 -45 -35 -3 0
-6 24 -6 54 0 58 -27 106 -59 106 -31 0 -68 -38 -100 -100 -32 -66 -31 -67
-52 39 -15 78 -56 131 -99 131 -35 0 -84 -40 -110 -89 l-19 -36 -1 70 c-4 255
-22 758 -28 800 -7 41 -9 25 -14 -95z m-918 -1174 c0 -8 -14 -30 -31 -48 -17
-18 -37 -45 -45 -60 -8 -16 -19 -28 -25 -28 -21 0 -20 31 2 62 51 75 99 111
99 74z m35 -45 c7 -13 -54 -103 -66 -96 -15 10 -11 27 17 67 27 39 38 45 49
29z m98 -27 c9 -9 -46 -114 -60 -114 -18 0 -16 25 3 63 27 53 42 66 57 51z
m-362 -158 c-32 -47 -45 -54 -56 -36 -13 21 61 108 77 92 7 -7 0 -26 -21 -56z
m153 26 c9 -16 -15 -82 -29 -82 -17 0 -19 27 -5 64 10 26 24 33 34 18z m116
-36 c0 -22 -21 -76 -30 -76 -17 0 -21 21 -10 55 11 34 40 49 40 21z m-234
-101 c-13 -51 -26 -75 -42 -75 -17 0 -15 19 6 75 13 34 45 35 36 0z m128 -13
c5 -9 -13 -67 -27 -90 -10 -15 -27 -6 -27 14 0 8 7 30 14 49 14 34 29 44 40
27z"/>
<path d="M715 2385 c3 -38 13 -118 21 -177 13 -88 14 -126 5 -220 -6 -63 -11
-151 -11 -196 0 -72 -4 -88 -32 -144 -31 -59 -33 -69 -33 -168 0 -101 1 -107
37 -175 l36 -70 6 -160 c6 -171 14 -217 47 -259 25 -31 39 -26 39 15 0 20 10
40 29 60 57 57 114 29 189 -91 l22 -35 0 30 c0 41 42 129 71 149 50 34 114 14
146 -47 18 -34 23 -141 9 -229 -6 -42 -5 -47 14 -53 29 -9 67 18 86 63 22 49
31 265 15 358 -27 155 -74 196 -315 277 -22 8 -43 20 -48 28 -4 8 -28 120 -52
249 -41 213 -44 236 -30 257 8 13 23 23 34 23 10 0 58 -25 107 -55 l88 -56 12
78 c6 43 12 83 12 89 1 6 -44 41 -99 78 -166 113 -310 262 -385 401 l-27 50 7
-70z m424 -1131 c6 -14 9 -30 5 -35 -9 -14 -44 20 -44 43 0 27 25 22 39 -8z
m-13 -126 c13 -37 10 -48 -11 -48 -13 0 -37 69 -29 82 11 17 27 2 40 -34z m97
9 c10 -30 0 -51 -19 -39 -6 4 -15 22 -19 40 -6 29 -4 33 11 30 9 -1 22 -16 27
-31z m111 11 c12 -48 7 -78 -14 -78 -17 0 -20 7 -20 50 0 36 4 50 14 50 7 0
16 -10 20 -22z m-143 -131 c7 -27 3 -37 -17 -37 -14 0 -28 46 -18 61 10 16 27
5 35 -24z m94 3 c10 -16 -5 -50 -21 -50 -9 0 -14 11 -14 30 0 30 21 42 35 20z"/>
<path d="M1957 1233 c-10 -10 -9 -116 8 -603 9 -245 20 -455 25 -467 11 -25
41 -30 58 -10 15 17 -24 1056 -40 1074 -11 14 -40 17 -51 6z"/>
<path d="M2587 419 c-21 -11 -35 -24 -32 -29 4 -6 33 -10 66 -10 l60 0 -23 30
c-26 35 -22 35 -71 9z"/>
</g>
</svg>
