<?xml version="1.0" encoding="utf-8"?><!-- Uploaded to: SVG Repo, www.svgrepo.com, Generator: SVG Repo Mixer Tools -->
<svg width="800px" height="800px" viewBox="0 0 24 24" fill="none" xmlns="http://www.w3.org/2000/svg">
<path d="M3.35288 15.0496L2.6227 15.2209L3.35288 15.0496ZM3.35288 8.95043L2.6227 8.77915L3.35288 8.95043ZM20.6471 8.95044L19.9169 9.12171L20.6471 8.95044ZM20.6471 15.0496L19.9169 14.8783L20.6471 15.0496ZM15.0496 20.6471L14.8783 19.9169L15.0496 20.6471ZM8.95044 20.6471L8.77916 21.3773L8.95044 20.6471ZM8.95043 3.35288L8.77916 2.6227L8.95043 3.35288ZM15.0496 3.35288L14.8783 4.08306L15.0496 3.35288ZM4.08306 14.8783C3.63898 12.9851 3.63898 11.0149 4.08306 9.12171L2.6227 8.77915C2.12577 10.8976 2.12577 13.1024 2.6227 15.2209L4.08306 14.8783ZM19.9169 9.12171C20.361 11.0149 20.361 12.9851 19.9169 14.8783L21.3773 15.2208C21.8742 13.1024 21.8742 10.8976 21.3773 8.77916L19.9169 9.12171ZM14.8783 19.9169C12.9851 20.361 11.0149 20.361 9.12171 19.9169L8.77916 21.3773C10.8976 21.8742 13.1024 21.8742 15.2208 21.3773L14.8783 19.9169ZM9.12171 4.08306C11.0149 3.63898 12.9851 3.63898 14.8783 4.08306L15.2208 2.6227C13.1024 2.12577 10.8976 2.12577 8.77916 2.6227L9.12171 4.08306ZM9.12171 19.9169C6.62161 19.3305 4.6695 17.3784 4.08306 14.8783L2.6227 15.2209C3.33924 18.2756 5.72441 20.6608 8.77916 21.3773L9.12171 19.9169ZM15.2208 21.3773C18.2756 20.6608 20.6608 18.2756 21.3773 15.2208L19.9169 14.8783C19.3305 17.3784 17.3784 19.3305 14.8783 19.9169L15.2208 21.3773ZM14.8783 4.08306C17.3784 4.6695 19.3305 6.62161 19.9169 9.12171L21.3773 8.77916C20.6608 5.72441 18.2756 3.33924 15.2208 2.6227L14.8783 4.08306ZM8.77916 2.6227C5.72441 3.33924 3.33924 5.72441 2.6227 8.77915L4.08306 9.12171C4.6695 6.6216 6.62161 4.6695 9.12171 4.08306L8.77916 2.6227Z" fill="#0095FF"/>
<path d="M3.35288 15.0496L2.6227 15.2209L3.35288 15.0496ZM3.35288 8.95043L2.6227 8.77915L3.35288 8.95043ZM19.9169 9.12171C20.0115 9.52498 20.4151 9.77521 20.8184 9.68062C21.2217 9.58602 21.4719 9.18243 21.3773 8.77916L19.9169 9.12171ZM15.2208 21.3773C15.6241 21.2827 15.8743 20.8791 15.7797 20.4758C15.6852 20.0726 15.2816 19.8224 14.8783 19.9169L15.2208 21.3773ZM8.95044 20.6471L8.77916 21.3773L8.95044 20.6471ZM8.95043 3.35288L8.77916 2.6227L8.95043 3.35288ZM15.0496 3.35288L14.8783 4.08306L15.0496 3.35288ZM4.08306 14.8783C3.63898 12.9851 3.63898 11.0149 4.08306 9.12171L2.6227 8.77915C2.12577 10.8976 2.12577 13.1024 2.6227 15.2209L4.08306 14.8783ZM14.8783 19.9169C12.9851 20.361 11.0149 20.361 9.12171 19.9169L8.77916 21.3773C10.8976 21.8742 13.1024 21.8742 15.2208 21.3773L14.8783 19.9169ZM9.12171 4.08306C11.0149 3.63898 12.9851 3.63898 14.8783 4.08306L15.2208 2.6227C13.1024 2.12577 10.8976 2.12577 8.77916 2.6227L9.12171 4.08306ZM9.12171 19.9169C6.62161 19.3305 4.6695 17.3784 4.08306 14.8783L2.6227 15.2209C3.33924 18.2756 5.72441 20.6608 8.77916 21.3773L9.12171 19.9169ZM14.8783 4.08306C17.3784 4.6695 19.3305 6.62161 19.9169 9.12171L21.3773 8.77916C20.6608 5.72441 18.2756 3.33924 15.2208 2.6227L14.8783 4.08306ZM8.77916 2.6227C5.72441 3.33924 3.33924 5.72441 2.6227 8.77915L4.08306 9.12171C4.6695 6.6216 6.62161 4.6695 9.12171 4.08306L8.77916 2.6227Z" fill="#363853"/>
<path d="M11.25 9.38467C11.25 9.79889 11.5858 10.1347 12 10.1347C12.4142 10.1347 12.75 9.79889 12.75 9.38467H11.25ZM12.75 7.83887C12.75 7.42465 12.4142 7.08887 12 7.08887C11.5858 7.08887 11.25 7.42465 11.25 7.83887H12.75ZM11.25 16.161C11.25 16.5753 11.5858 16.911 12 16.911C12.4142 16.911 12.75 16.5753 12.75 16.161H11.25ZM12.75 14.6154C12.75 14.2012 12.4142 13.8654 12 13.8654C11.5858 13.8654 11.25 14.2012 11.25 14.6154H12.75ZM10.1101 13.9571C10.4688 13.75 10.5917 13.2913 10.3846 12.9326C10.1775 12.5739 9.71882 12.451 9.3601 12.6581L10.1101 13.9571ZM8.02139 13.431C7.66267 13.6381 7.53977 14.0968 7.74687 14.4555C7.95398 14.8142 8.41267 14.9371 8.77139 14.73L8.02139 13.431ZM15.9786 10.5689C16.3373 10.3618 16.4602 9.90313 16.2531 9.54441C16.046 9.18569 15.5873 9.06279 15.2286 9.26989L15.9786 10.5689ZM13.89 10.0427C13.5313 10.2498 13.4084 10.7085 13.6155 11.0673C13.8226 11.426 14.2813 11.5489 14.64 11.3418L13.89 10.0427ZM9.3601 11.3418C9.71882 11.5489 10.1775 11.426 10.3846 11.0673C10.5917 10.7086 10.4688 10.2499 10.1101 10.0428L9.3601 11.3418ZM8.77139 9.26989C8.41267 9.06279 7.95398 9.18569 7.74687 9.54441C7.53977 9.90313 7.66267 10.3618 8.02139 10.5689L8.77139 9.26989ZM15.2286 14.73C15.5873 14.9371 16.046 14.8142 16.2531 14.4555C16.4602 14.0968 16.3373 13.6381 15.9786 13.431L15.2286 14.73ZM14.64 12.6581C14.2813 12.451 13.8226 12.5739 13.6155 12.9327C13.4084 13.2914 13.5313 13.7501 13.89 13.9572L14.64 12.6581ZM12.75 9.38467V7.83887H11.25V9.38467H12.75ZM12.75 16.161V14.6154H11.25V16.161H12.75ZM9.3601 12.6581L8.02139 13.431L8.77139 14.73L10.1101 13.9571L9.3601 12.6581ZM15.2286 9.26989L13.89 10.0427L14.64 11.3418L15.9786 10.5689L15.2286 9.26989ZM10.1101 10.0428L8.77139 9.26989L8.02139 10.5689L9.3601 11.3418L10.1101 10.0428ZM15.9786 13.431L14.64 12.6581L13.89 13.9572L15.2286 14.73L15.9786 13.431Z" fill="#0095FF"/>
</svg>