<?xml version="1.0" encoding="utf-8"?><!-- Uploaded to: SVG Repo, www.svgrepo.com, Generator: SVG Repo Mixer Tools -->
<svg fill="#000000" width="800px" height="800px" viewBox="0 0 24 24" id="loading" data-name="Flat Line" xmlns="http://www.w3.org/2000/svg" class="icon flat-line"><path id="secondary" d="M16,18v3H8V18a6,6,0,0,1,2.4-4.8L12,12l1.6,1.2A6,6,0,0,1,16,18ZM16,6V3H8V6a6,6,0,0,0,2.4,4.8L12,12l1.6-1.2A6,6,0,0,0,16,6Z" style="fill: rgb(44, 169, 188); stroke-width: 2;"></path><path id="primary" d="M16,18v3H8V18a6,6,0,0,1,2.4-4.8L12,12l1.6,1.2A6,6,0,0,1,16,18ZM16,6V3H8V6a6,6,0,0,0,2.4,4.8L12,12l1.6-1.2A6,6,0,0,0,16,6ZM6,21H18M6,3H18" style="fill: none; stroke: rgb(0, 0, 0); stroke-linecap: round; stroke-linejoin: round; stroke-width: 2;"></path></svg>