<svg width="161" height="140" viewBox="0 0 161 140" fill="none" xmlns="http://www.w3.org/2000/svg">
<path d="M140.937 65.7292C140.937 80.3172 136.174 93.7339 128.275 104.574C123.877 110.391 118.619 115.544 112.594 119.552C102.821 126.124 91.1611 130.002 78.6254 130.002C44.1492 130.002 16.3176 101.217 16.3176 65.8594C16.3176 30.372 44.2742 1.7168 78.6254 1.7168C91.1611 1.7168 102.821 5.58166 112.594 12.0363C118.619 16.0444 123.877 21.1977 128.275 27.0146C136.291 37.7246 140.937 51.1413 140.937 65.7292Z" fill="#F2F3F8"/>
<path opacity="0.3" d="M128.275 26.8834V104.443C123.877 110.26 118.619 115.413 112.594 119.421H49.2881V22.4979C49.4143 19.648 50.5426 17.0713 52.2968 15.2624C54.3034 13.2063 56.936 12.0352 59.9447 12.0352H112.594C118.619 16.0433 124.007 21.0795 128.275 26.8834Z" fill="#CED7E2"/>
<path d="M116.862 25.8553H81.2581V12.0352H128.015C128.145 12.0352 128.275 12.0352 128.275 12.0352C135.537 12.1653 141.432 18.3597 141.432 25.9725H126.011" fill="#CED7E2"/>
<path d="M129.277 12.0352C126.518 12.1653 124.007 13.4536 122.133 15.2624C122.002 15.3926 121.755 15.6528 121.625 15.9131C119.998 17.8521 118.866 20.4288 118.866 23.1356V105.731C118.866 113.487 112.854 119.681 105.327 119.681H39.636V22.4979C39.7609 19.648 40.8892 17.0713 42.6447 15.2624C44.65 13.2063 47.2826 12.0352 50.2913 12.0352H116.238H128.769C129.017 12.0352 129.147 12.0352 129.277 12.0352Z" fill="white"/>
<path d="M105.703 30.8793H86.272C85.5198 30.8793 85.0188 30.2417 85.0188 29.591C85.0188 28.9534 85.6448 28.3027 86.272 28.3027H105.83C106.582 28.3027 107.083 28.9534 107.083 29.591C107.083 30.2417 106.456 30.8793 105.703 30.8793Z" fill="#CED7E2"/>
<path d="M77.1197 30.8793H51.6708C50.9187 30.8793 50.4177 30.2417 50.4177 29.591C50.4177 28.9534 51.0436 28.3027 51.6708 28.3027H77.1197C77.8719 28.3027 78.3742 28.9534 78.3742 29.591C78.3742 30.2417 77.8719 30.8793 77.1197 30.8793Z" fill="#CED7E2"/>
<path d="M93.4174 43.9184H68.0935C67.3413 43.9184 66.8403 43.2678 66.8403 42.6301C66.8403 41.8493 67.4675 41.3418 68.0935 41.3418H93.4174C94.1696 41.3418 94.6719 41.9794 94.6719 42.6301C94.6719 43.3979 94.1696 43.9184 93.4174 43.9184Z" fill="#CED7E2"/>
<path d="M59.9448 43.9184H51.6708C50.9187 43.9184 50.4177 43.2678 50.4177 42.6301C50.4177 41.8493 51.0436 41.3418 51.6708 41.3418H59.9448C60.6969 41.3418 61.1992 41.9794 61.1992 42.6301C61.1992 43.3979 60.572 43.9184 59.9448 43.9184Z" fill="#E3EAF2"/>
<path d="M105.703 57.0857H90.1577C89.4056 57.0857 88.9045 56.4351 88.9045 55.7844C88.9045 55.0166 89.5318 54.4961 90.1577 54.4961H105.703C106.456 54.4961 106.958 55.1467 106.958 55.7844C107.083 56.4351 106.456 57.0857 105.703 57.0857Z" fill="#E3EAF2"/>
<path d="M82.7623 57.0857H51.6708C50.9187 57.0857 50.4177 56.4351 50.4177 55.7844C50.4177 55.0166 51.0436 54.4961 51.6708 54.4961H82.7623C83.5145 54.4961 84.0155 55.1467 84.0155 55.7844C84.0155 56.4351 83.5145 57.0857 82.7623 57.0857Z" fill="#CED7E2"/>
<path d="M93.4174 70.1137H76.2425C75.4903 70.1137 74.9893 69.4761 74.9893 68.8254C74.9893 68.1747 75.6152 67.5371 76.2425 67.5371H93.4174C94.1696 67.5371 94.6719 68.1747 94.6719 68.8254C94.6719 69.4761 94.1696 70.1137 93.4174 70.1137Z" fill="#CED7E2"/>
<path d="M68.8458 70.1137H51.6708C50.9187 70.1137 50.4177 69.4761 50.4177 68.8254C50.4177 68.1747 51.0436 67.5371 51.6708 67.5371H68.8458C69.598 67.5371 70.1004 68.1747 70.1004 68.8254C70.1004 69.4761 69.598 70.1137 68.8458 70.1137Z" fill="#E3EAF2"/>
<path d="M105.703 83.283H93.7937C93.0416 83.283 92.5405 82.6323 92.5405 81.9947C92.5405 81.2139 93.1678 80.6934 93.7937 80.6934H105.703C106.456 80.6934 106.958 81.344 106.958 81.9947C107.083 82.6323 106.456 83.283 105.703 83.283Z" fill="#CED7E2"/>
<path d="M86.0222 83.283H65.9635C65.2113 83.283 64.709 82.6323 64.709 81.9947C64.709 81.2139 65.3362 80.6934 65.9635 80.6934H86.0222C86.7744 80.6934 87.2754 81.344 87.2754 81.9947C87.4003 82.6323 86.7744 83.283 86.0222 83.283Z" fill="#E3EAF2"/>
<path d="M58.5664 83.283H51.5458C50.7936 83.283 50.2913 82.6323 50.2913 81.9947C50.2913 81.2139 50.9186 80.6934 51.5458 80.6934H58.5664C59.3186 80.6934 59.8196 81.344 59.8196 81.9947C59.8196 82.6323 59.3186 83.283 58.5664 83.283Z" fill="#CED7E2"/>
<path d="M93.4176 96.3221H81.5078C80.7557 96.3221 80.2546 95.6714 80.2546 95.0207C80.2546 94.3831 80.8819 93.7324 81.5078 93.7324H93.4176C94.1698 93.7324 94.6721 94.3831 94.6721 95.0207C94.6721 95.6714 94.1698 96.3221 93.4176 96.3221Z" fill="#CED7E2"/>
<path d="M73.735 96.3221H51.6708C50.9187 96.3221 50.4177 95.6714 50.4177 95.0207C50.4177 94.3831 51.0436 93.7324 51.6708 93.7324H73.735C74.4871 93.7324 74.9894 94.3831 74.9894 95.0207C74.9894 95.6714 74.3622 96.3221 73.735 96.3221Z" fill="#E3EAF2"/>
<path d="M76.4939 108.58H93.7938C93.7938 111.547 94.922 114.384 96.9287 116.323C98.8091 118.262 101.442 119.55 104.45 119.55H26.3471C23.4633 119.55 20.7058 118.379 18.8253 116.323C16.9449 114.384 15.6904 111.677 15.6904 108.58H66.9656C67.0918 108.58 76.6188 108.71 76.4939 108.58Z" fill="#CED7E2"/>
<path d="M27.4558 15.2487C29.102 14.6891 30.0026 12.8802 29.4677 11.1755C28.9316 9.48377 27.1643 8.55986 25.5181 9.10642C23.8719 9.65298 22.9715 11.4749 23.5063 13.1796C24.0412 14.8713 25.8096 15.7952 27.4558 15.2487Z" fill="#EAEEF9"/>
<path d="M34.2967 4.72152C35.4159 4.34414 36.0288 3.10786 35.6644 1.94968C35.3013 0.804506 34.0989 0.16691 32.9798 0.544297C31.8593 0.921683 31.2477 2.15795 31.6108 3.31614C31.9751 4.46131 33.1776 5.09891 34.2967 4.72152Z" fill="#EAEEF9"/>
<path d="M5.66112 74.252C6.83883 74.252 7.79271 73.2629 7.79271 72.0527C7.79271 70.8425 6.83883 69.8535 5.66112 69.8535C4.48472 69.8535 3.52954 70.8425 3.52954 72.0527C3.52954 73.2629 4.48472 74.252 5.66112 74.252Z" fill="#60D39C"/>
<path d="M153.794 47.0409C155.733 45.219 155.863 42.1089 154.094 40.1049C152.324 38.1138 149.305 37.9705 147.366 39.8054C145.427 41.6273 145.284 44.7245 147.066 46.7286C148.836 48.7327 151.855 48.8628 153.794 47.0409Z" fill="#EAEEF9"/>
<path d="M152.844 25.5953C153.95 25.5953 154.848 24.6714 154.848 23.5263C154.848 22.3811 153.95 21.457 152.844 21.457C151.738 21.457 150.84 22.3811 150.84 23.5263C150.84 24.6714 151.738 25.5953 152.844 25.5953Z" fill="#FF5555"/>
<g filter="url(#filter0_d_341_10275)">
<path d="M43.9965 43.8558C44.1282 48.1131 40.5587 51.7325 36.1961 51.8627H34.0813L28.2641 51.9928C19.5388 52.2532 12.2667 45.4052 12.0019 36.8906C11.8701 28.3631 18.7456 21.2676 27.4708 21.0072C36.1961 20.7468 43.4681 27.5948 43.7316 36.1094L43.8647 39.3382L43.9965 43.8558Z" fill="#8E59FF"/>
</g>
<path d="M25.4686 42.8909C24.9676 42.8909 24.4665 42.7608 24.0904 42.3704L20.4545 38.6225C19.7023 37.8547 19.7023 36.6964 20.4545 35.9156C21.2067 35.1479 22.3349 35.1479 23.0871 35.9156L25.3436 38.2451L31.9882 31.4001C32.7404 30.6193 33.8686 30.6193 34.6208 31.4001C35.373 32.1678 35.373 33.3391 34.6208 34.1069L26.5968 42.3704C26.4719 42.6306 25.9709 42.8909 25.4686 42.8909Z" fill="white"/>
<path d="M1.14795 121.736H129.147" stroke="#EBF0F6" stroke-width="2" stroke-miterlimit="10" stroke-linecap="round" stroke-linejoin="round"/>
<g filter="url(#filter1_d_341_10275)">
<path d="M152.519 108.711C152.125 110.413 151.609 111.982 150.943 113.552C150.821 113.934 150.685 114.198 150.427 114.594C148.199 118.907 144.667 122.442 140.347 124.539C139.831 124.79 139.301 125.054 138.907 125.186C134.722 126.887 130.008 127.547 125.294 126.491C112.863 123.88 104.879 111.718 107.497 99.2932C110.115 86.8548 122.292 78.8747 134.722 81.4996C139.165 82.4097 143.091 84.6389 146.365 87.7781C151.731 93.2653 154.095 101.113 152.519 108.711Z" fill="#2280FF"/>
</g>
<path d="M149.331 113.605C149.201 113.995 149.083 114.255 148.836 114.646C146.702 118.901 143.319 122.389 139.18 124.458C138.673 124.705 138.178 124.965 137.801 125.095L122.25 109.089L126.011 109.219L130.019 109.349L132.908 107.293C132.908 107.293 135.159 103.285 135.042 103.025C134.912 102.765 132.413 98.7695 132.413 98.7695L135.159 99.2901L149.331 113.605Z" fill="url(#paint0_linear_341_10275)"/>
<path d="M138.296 111.418L135.042 108.06C137.541 104.182 136.539 99.029 132.778 96.4394C129.017 93.8627 124.007 94.8908 121.495 98.7688C118.997 102.634 119.999 107.8 123.76 110.39C126.519 112.186 130.019 112.186 132.661 110.39L135.914 113.734C136.539 114.385 137.541 114.385 138.178 113.734C138.92 113.096 138.92 112.055 138.296 111.418ZM124.879 106.902C123.005 104.963 123.005 101.736 124.879 99.7969C126.766 97.8709 129.902 97.8709 131.776 99.7969C133.663 101.736 133.663 104.963 131.776 106.902C129.772 108.841 126.766 108.841 124.879 106.902Z" fill="white"/>
<defs>
<filter id="filter0_d_341_10275" x="4" y="18" width="48" height="47" filterUnits="userSpaceOnUse" color-interpolation-filters="sRGB">
<feFlood flood-opacity="0" result="BackgroundImageFix"/>
<feColorMatrix in="SourceAlpha" type="matrix" values="0 0 0 0 0 0 0 0 0 0 0 0 0 0 0 0 0 0 127 0" result="hardAlpha"/>
<feOffset dy="5"/>
<feGaussianBlur stdDeviation="4"/>
<feColorMatrix type="matrix" values="0 0 0 0 0.859467 0 0 0 0 0.832639 0 0 0 0 0.916667 0 0 0 1 0"/>
<feBlend mode="normal" in2="BackgroundImageFix" result="effect1_dropShadow_341_10275"/>
<feBlend mode="normal" in="SourceGraphic" in2="effect1_dropShadow_341_10275" result="shape"/>
</filter>
<filter id="filter1_d_341_10275" x="99" y="78" width="62" height="62" filterUnits="userSpaceOnUse" color-interpolation-filters="sRGB">
<feFlood flood-opacity="0" result="BackgroundImageFix"/>
<feColorMatrix in="SourceAlpha" type="matrix" values="0 0 0 0 0 0 0 0 0 0 0 0 0 0 0 0 0 0 127 0" result="hardAlpha"/>
<feOffset dy="5"/>
<feGaussianBlur stdDeviation="4"/>
<feColorMatrix type="matrix" values="0 0 0 0 0.1125 0 0 0 0 0.295916 0 0 0 0 1 0 0 0 0.22 0"/>
<feBlend mode="normal" in2="BackgroundImageFix" result="effect1_dropShadow_341_10275"/>
<feBlend mode="normal" in="SourceGraphic" in2="effect1_dropShadow_341_10275" result="shape"/>
</filter>
<linearGradient id="paint0_linear_341_10275" x1="132.531" y1="107.996" x2="140.43" y2="115.661" gradientUnits="userSpaceOnUse">
<stop stop-color="#0761DA"/>
<stop offset="1" stop-color="#3D69DA" stop-opacity="0"/>
</linearGradient>
</defs>
</svg>
